<svg width="712" height="176" viewBox="0 0 712 176" fill="none" xmlns="http://www.w3.org/2000/svg">
<g clip-path="url(#clip0_172_580)">
<path d="M548.81 69.86L538.5 87.18H522.66L540.61 60.57L522.66 33.95H537.82L548.8 51.02L554.82 60.56L548.8 69.8499L548.81 69.86Z" fill="#F7F8FA"/>
<path d="M551.37 71.98L561.15 87.18H576.31L558.63 60.57L576.31 33.95H560.47L551.37 49.25L557.91 60.57L551.37 71.98Z" fill="#F7F8FA"/>
<path d="M162.87 33.99V40.93H164.16C167.77 36.42 172.94 33.96 180.34 33.96C195.69 33.96 202.53 45.44 202.53 59.97C202.53 74.5 195.83 87.18 180.48 87.18C172.99 87.18 167.57 83.53 164.06 78.72H162.86V99.48H149.54V33.99H162.86H162.87ZM176 75.29C184.6 75.58 189.13 70.19 189.13 59.88C189.13 49.57 184.6 44.47 176 44.57C167.67 44.77 162.86 50.17 162.86 59.88C162.86 69.59 167.67 75 176 75.29Z" fill="#F7F8FA"/>
<path d="M210.62 60.8699C210.62 46.6099 218.11 33.95 237.25 33.95C256.39 33.95 263.88 46.6099 263.88 60.8699C263.88 75.1299 256.39 87.18 237.25 87.18C218.11 87.18 210.62 74.6299 210.62 60.8699ZM237.25 75.9499C246.13 75.9499 250.48 70.6399 250.48 60.91C250.48 51.18 246.14 45.27 237.25 45.27C228.36 45.27 224.02 50.88 224.02 60.91C224.02 70.9399 228.36 75.9499 237.25 75.9499Z" fill="#F7F8FA"/>
<path d="M284.43 33.9599L274.03 31.0899C271.87 30.3599 272.1 29.3499 272.1 27.0799L272.13 21.6599H285.58V87.1799H272.12L272.14 33.9599H284.44H284.43Z" fill="#F7F8FA"/>
<path d="M325.87 33.9599C337.85 33.9599 344.22 41.49 344.22 54.95V87.18H330.94V57.3499C330.94 49.4099 327.25 45.2999 320.71 45.2999C313.52 45.2999 309 50.12 309 60.36V87.1699H295.63V33.95H308.91V42.38H310.2C313.42 37.16 318.59 33.95 325.87 33.95V33.9599Z" fill="#F7F8FA"/>
<path d="M444.03 33.9599C456.01 33.9599 462.38 41.49 462.38 54.95V87.18H449.1V57.3499C449.1 49.4099 445.41 45.2999 438.87 45.2999C431.68 45.2999 427.17 50.12 427.17 60.36V87.1699H413.8V33.95H427.08V42.38H428.37C431.59 37.16 436.76 33.95 444.04 33.95L444.03 33.9599Z" fill="#F7F8FA"/>
<path d="M599.86 87.18C587.88 87.18 581.51 79.65 581.51 66.19V33.96H594.79V63.79C594.79 71.73 598.48 75.84 605.02 75.84C612.21 75.84 616.72 71.02 616.72 60.78V33.97H630.09V87.19H616.81V78.76H615.52C612.3 83.98 607.13 87.19 599.85 87.19L599.86 87.18Z" fill="#F7F8FA"/>
<path d="M470.36 60.5C470.36 45.68 478.18 33.96 495.56 33.96C512.94 33.96 519.94 45.78 519.94 60.01C519.94 61.51 519.85 62.81 519.67 63.82H483.19C483.92 73.63 488.47 77.54 495.93 77.54C502.2 77.54 505.66 74.43 507.03 70.13H519.77C518.31 78.84 511.85 87.06 495.57 87.06C477.38 87.06 470.37 74.64 470.37 60.52L470.36 60.5ZM507.3 55.5C506.84 47.89 502.84 43.38 495.74 43.38C488.64 43.38 484.37 47.59 483.36 55.5H507.29H507.3Z" fill="#F7F8FA"/>
<path d="M659.91 78.3199C666.08 78.3199 669.16 76.2099 669.16 72.0899C669.16 68.6799 667.57 66.5699 661.32 65.5599L651.14 63.8599C641.99 62.3499 637.03 58.6399 636.94 49.3999C636.85 38.3599 646 33.9399 658.62 33.9399C671.89 33.9399 680.48 39.3599 681.32 50.4999H669.08C668.61 46.2899 665.62 43.0799 658.71 43.0799C652.54 43.0799 649.93 45.5899 649.93 49.1999C649.93 52.1099 651.33 54.2199 656.19 54.9199L666.19 56.2199C677.12 57.7299 682.35 61.6399 682.07 71.4799C681.88 81.1099 675.9 87.1299 659.74 87.1299C642.46 87.1299 636.67 78.8999 636.29 69.1599H648.53C649 74.1799 651.61 78.2999 659.92 78.2999L659.94 78.3199H659.91Z" fill="#F7F8FA"/>
<path d="M374.31 33.9699H389.56V46.0999H374.31V75.0799H389.56V87.1699H376.37C364.04 87.1699 360.76 81.3799 360.76 70.7799V46.0899H350.4V33.9599H360.78V21.6499H374.31V33.9599V33.9699Z" fill="#F7F8FA"/>
<path d="M68.1598 127.83V142.15L23.2998 116.39V56.02C23.2998 51.4 28.3998 48.51 32.4798 50.82L64.2598 68.88L64.3098 51.2L76.8798 44.02L76.9098 80.77C76.9098 82.19 76.1398 83.51 74.8998 84.23L42.2898 103.07V88.64L57.9198 79.8L35.8998 67.15V109.3L68.1698 127.83H68.1598Z" fill="#F7F8FA"/>
<path d="M79.41 21.6599L131.28 51.9899C135.24 54.2999 135.25 60.0099 131.3 62.3399L100.6 80.4699L115.92 89.4799V103.65L83.67 84.8199C82.44 84.0999 81.69 82.7899 81.69 81.3599V44.0799L94.05 51.1899L94.19 69.6599L115.79 57.1899L79.41 35.9699L48.11 54.2899L35.77 47.0599L79.42 21.6599H79.41Z" fill="#F7F8FA"/>
<path d="M121.83 73.3899L134.26 66.3799V116.16L81.69 146.31C77.66 148.62 72.62 145.73 72.62 141.11V105.75L57.11 115.03L44.48 107.52L76.9 89.0099C78.14 88.2999 79.67 88.2999 80.92 89.0099L113.26 107.51L100.85 114.74L85.27 105.69V130.75L121.83 109.5V73.3799V73.3899Z" fill="#F7F8FA"/>
<path d="M148.91 124.33C148.91 117.73 152.87 111.98 162.35 111.98C170.7 111.98 174.89 116.44 175.18 122.11H168.48C168.1 118.77 165.98 117.05 162.44 117.05C158.29 117.05 155.74 119.05 155.74 124.34C155.74 129.63 158.14 131.54 162.29 131.54C166.2 131.54 168.18 129.59 168.51 126.34H175.21C174.97 131.91 170.92 136.65 162.38 136.65C152.9 136.65 148.89 130.84 148.89 124.34L148.91 124.33Z" fill="#F7F8FA"/>
<path d="M191.09 136.6C181.33 136.6 177.51 130.79 177.51 124.43C177.51 118.07 181.33 111.98 191.09 111.98C200.85 111.98 204.67 117.83 204.67 124.43C204.67 131.03 200.85 136.6 191.09 136.6ZM184.35 124.43C184.35 129.03 186.57 131.54 191.09 131.54C195.61 131.54 197.83 129.03 197.83 124.43C197.83 119.83 195.61 117.04 191.09 117.04C186.57 117.04 184.35 119.69 184.35 124.43Z" fill="#F7F8FA"/>
<path d="M214.38 115.88C216.03 113.46 218.67 111.98 222.4 111.98C228.53 111.98 231.78 115.46 231.78 121.69V136.14H224.99V122.81C224.99 119.14 223.1 117.24 219.76 117.24C216.08 117.24 213.77 119.47 213.77 124.21V136.15H206.93V112.6H213.72V115.9H214.38V115.88Z" fill="#F7F8FA"/>
<path d="M241.51 115.88C243.16 113.46 245.8 111.98 249.53 111.98C255.66 111.98 258.91 115.46 258.91 121.69V136.14H252.12V122.81C252.12 119.14 250.23 117.24 246.89 117.24C243.21 117.24 240.9 119.47 240.9 124.21V136.15H234.06V112.6H240.85V115.9H241.51V115.88Z" fill="#F7F8FA"/>
<path d="M274.1 136.6C264.67 136.6 261.04 130.84 261.04 124.29C261.04 117.42 265.1 111.98 274.1 111.98C283.1 111.98 286.74 117.46 286.74 124.06C286.74 124.76 286.69 125.36 286.6 125.82H267.69C268.07 130.37 270.43 132.18 274.29 132.18C277.54 132.18 279.34 130.74 280.04 128.74H286.64C285.89 132.78 282.54 136.59 274.1 136.59V136.6ZM267.78 121.97H280.18C279.94 118.44 277.87 116.35 274.19 116.35C270.51 116.35 268.3 118.3 267.78 121.97Z" fill="#F7F8FA"/>
<path d="M288.99 124.33C288.99 117.73 292.95 111.98 302.43 111.98C310.78 111.98 314.97 116.44 315.26 122.11H308.56C308.18 118.77 306.06 117.05 302.52 117.05C298.37 117.05 295.82 119.05 295.82 124.34C295.82 129.63 298.22 131.54 302.37 131.54C306.28 131.54 308.26 129.59 308.59 126.34H315.29C315.05 131.91 311 136.65 302.46 136.65C292.98 136.65 288.97 130.84 288.97 124.34L288.99 124.33Z" fill="#F7F8FA"/>
<path d="M322.64 117.51H317.45L317.5 112.59H324.86V111.99L322.83 111.2C321.89 110.83 321.37 109.99 321.37 109.02V105.12H329.48V112.55L337.07 112.6V117.52H329.43V130.99H337.35V136.15H330.47C324.29 136.15 322.64 133.92 322.64 129V117.53V117.51Z" fill="#F7F8FA"/>
<path d="M352.06 136.6C342.63 136.6 339 130.84 339 124.29C339 117.42 343.05 111.98 352.06 111.98C361.07 111.98 364.7 117.46 364.7 124.06C364.7 124.76 364.65 125.36 364.56 125.82H345.65C346.03 130.37 348.38 132.18 352.25 132.18C355.5 132.18 357.3 130.74 358 128.74H364.6C363.85 132.78 360.5 136.59 352.06 136.59V136.6ZM345.74 121.97H358.14C357.9 118.44 355.83 116.35 352.15 116.35C348.47 116.35 346.26 118.3 345.74 121.97Z" fill="#F7F8FA"/>
<path d="M387.18 124.52C387.18 120.06 384.96 117.23 380.44 117.23C375.92 117.23 373.79 119.78 373.79 124.52C373.79 129.26 375.86 131.72 380.44 131.72C385.02 131.72 387.18 128.89 387.18 124.52ZM366.95 124.47C366.95 117.69 370.39 112.16 378.22 112.16C381.99 112.16 384.77 113.41 386.52 115.64H387.18V105.47H393.97V136.13H387.18V133.34H386.52C384.78 135.52 381.99 136.78 378.22 136.78C370.39 136.78 366.95 131.3 366.95 124.47Z" fill="#F7F8FA"/>
<path d="M417.81 124.24C417.81 128.84 420.26 131.39 424.51 131.53C428.9 131.67 431.21 129.12 431.21 124.24C431.21 119.36 428.9 116.95 424.51 116.99C420.27 117.08 417.81 119.64 417.81 124.24ZM411.02 144.68V112.58H417.81V115.27H418.47C420.31 113.13 422.95 111.97 426.72 111.97C434.55 111.97 438.04 117.4 438.04 124.28C438.04 131.16 434.55 136.59 426.72 136.59C422.9 136.59 420.21 135.43 418.42 133.15H417.81V144.67H411.02V144.68Z" fill="#F7F8FA"/>
<path d="M456.73 132.88C455.27 135.16 452.44 136.74 447.96 136.74C443.24 136.74 439.9 134.33 439.85 130.1C439.8 126.34 441.64 123.92 448.01 122.9L453.76 121.92C456.16 121.55 456.92 120.99 456.92 119.55C456.92 117.79 455.84 116.67 452.25 116.67C448.43 116.67 446.97 118.2 446.97 120.53H440.32C440.32 115.28 444.8 112.17 452.16 112.17C459.52 112.17 463.05 115.14 463.19 120.11L463.52 136.13H457.58L457.44 132.88H456.73ZM446.68 129.77C446.82 131.81 448.33 132.51 450.36 132.42C454.42 132.28 457.01 129.54 457.01 125.82V124.84L450.5 126.14C447.81 126.7 446.49 127.77 446.68 129.76V129.77Z" fill="#F7F8FA"/>
<path d="M472.98 116.16C474.3 113.79 476.56 112.44 480.01 112.44H481.61V118.66H479.21C474.97 118.66 472.56 121.03 472.56 126.18V136.12H465.77V112.57H472.37V116.15H472.98V116.16Z" fill="#F7F8FA"/>
<path d="M488.82 117.51H483.63L483.68 112.59H491.04V111.99L489.01 111.2C488.07 110.83 487.55 109.99 487.55 109.02V105.12H495.66V112.55L503.25 112.6V117.52H495.61V130.99H503.53V136.15H496.65C490.47 136.15 488.82 133.92 488.82 129V117.53V117.51Z" fill="#F7F8FA"/>
<path d="M513.24 115.88C514.89 113.46 517.53 111.98 521.26 111.98C527.39 111.98 530.64 115.46 530.64 121.69V136.14H523.85V122.81C523.85 119.14 521.96 117.24 518.62 117.24C514.94 117.24 512.63 119.47 512.63 124.21V136.15H505.79V112.6H512.58V115.9H513.24V115.88Z" fill="#F7F8FA"/>
<path d="M545.83 136.6C536.4 136.6 532.77 130.84 532.77 124.29C532.77 117.42 536.83 111.98 545.83 111.98C554.83 111.98 558.469 117.46 558.469 124.06C558.469 124.76 558.42 125.36 558.33 125.82H539.419C539.799 130.37 542.15 132.18 546.02 132.18C549.27 132.18 551.07 130.74 551.77 128.74H558.37C557.62 132.78 554.27 136.59 545.83 136.59V136.6ZM539.51 121.97H551.909C551.669 118.44 549.599 116.35 545.919 116.35C542.239 116.35 540.03 118.3 539.51 121.97Z" fill="#F7F8FA"/>
<path d="M567.94 116.16C569.26 113.79 571.52 112.44 574.97 112.44H576.57V118.66H574.17C569.93 118.66 567.521 121.03 567.521 126.18V136.12H560.73V112.57H567.331V116.15H567.94V116.16Z" fill="#F7F8FA"/>
<path d="M55.4902 168.68V160.38C55.4902 159.73 56.1002 159.21 56.8502 159.21H66.0702C66.8102 159.21 67.4202 159.74 67.4202 160.38C67.4202 161.02 66.8202 161.56 66.0702 161.56H58.2002V167.5H66.0702C66.8102 167.5 67.4202 168.03 67.4202 168.68C67.4202 169.33 66.8202 169.85 66.0702 169.85H56.8502C56.1002 169.85 55.4902 169.32 55.4902 168.68Z" fill="#F7F8FA"/>
<path d="M57.4901 175.3C56.3001 175.3 55.3301 174.47 55.3301 173.44V155.64C55.3301 154.62 56.3001 153.78 57.4901 153.78C58.6901 153.78 59.6501 154.62 59.6501 155.64V173.44C59.6501 174.47 58.6901 175.3 57.4901 175.3Z" fill="#F7F8FA"/>
<path d="M57.6598 155.87H52.5898C47.0198 155.87 42.5098 159.75 42.5098 164.53C42.5098 169.31 47.0198 173.2 52.5898 173.2H57.6598V155.88V155.87ZM48.6898 164.53C48.6898 163.65 49.5198 162.94 50.5398 162.94C51.5598 162.94 52.3998 163.65 52.3998 164.53C52.3998 165.41 51.5698 166.13 50.5398 166.13C49.5098 166.13 48.6898 165.41 48.6898 164.53Z" fill="#F7F8FA"/>
<path d="M78.67 153.77V161.01C78.67 161.22 78.76 161.36 78.84 161.44C78.92 161.52 79.05 161.62 79.25 161.62H687.39C697.47 161.62 705.68 153.1 705.68 142.62V25C705.68 14.52 697.48 6 687.39 6H24.06C13.98 6 5.77 14.52 5.77 25V142.62C5.77 153.1 13.97 161.62 24.06 161.62H43.75V167.62H24.06C10.79 167.62 0 156.41 0 142.62V25C0 11.21 10.79 0 24.06 0H687.39C700.66 0 711.45 11.21 711.45 25V142.62C711.45 156.41 700.66 167.62 687.39 167.62H79.25C77.55 167.62 75.96 166.93 74.75 165.69C73.55 164.44 72.89 162.78 72.89 161.02V153.78" fill="#F7F8FA"/>
<path d="M685.59 30.95V31.37H684.52V34.86H684.01V31.37H682.94V30.95H685.59Z" fill="#F7F8FA"/>
<path d="M690.191 30.98V34.86H689.681V31.97L688.391 34.86H688.031L686.731 31.96V34.86H686.221V30.98H686.771L688.211 34.19L689.651 30.98H690.191Z" fill="#F7F8FA"/>
<path d="M686.57 38.8599C689.862 38.8599 692.53 36.1916 692.53 32.8999C692.53 29.6083 689.862 26.9399 686.57 26.9399C683.279 26.9399 680.61 29.6083 680.61 32.8999C680.61 36.1916 683.279 38.8599 686.57 38.8599Z" stroke="#F7F8FA" stroke-width="0.75" stroke-miterlimit="10"/>
</g>
<defs>
<clipPath id="clip0_172_580">
<rect width="711.46" height="175.3" fill="white"/>
</clipPath>
</defs>
</svg>
