<?xml version="1.0" encoding="UTF-8"?>
<svg id="Capa_2" data-name="Capa 2" xmlns="http://www.w3.org/2000/svg" viewBox="0 0 90.36 110.6">
  <defs>
    <style>
      .cls-1 {
        fill: #fff;
      }
    </style>
  </defs>
  <g id="Capa_1-2" data-name="Capa 1">
    <g>
      <path class="cls-1" d="M57.12,67.71H18.43c-1.4,0-4.06-.85-4.27-5.25-.19-3.97-2.93-6.94-6.94-7.08-3.99-.14-7.22,3.18-7.22,7.11,0,10.71,7.23,19.08,17.69,19.42h.05c.22,0,.44,0,.68,0h38.69c4.05,0,7.37,3.25,7.37,7.24s-3.31,7.24-7.37,7.24h-6.45c-3.99,0-7.22,3.18-7.22,7.1s3.23,7.11,7.22,7.11h6.45c12.02,0,21.81-9.63,21.81-21.44,0-11.83-9.79-21.44-21.81-21.44Z"/>
      <polygon class="cls-1" points="78.93 89.15 78.93 89.15 78.93 89.15 78.93 89.15"/>
      <path class="cls-1" d="M85.13,25.07h-14.04c-1.52,0-2.76-1.23-2.76-2.76V7.73c0-2.89-2.34-5.24-5.24-5.24h-1.09c-2.89,0-5.24,2.34-5.24,5.24v14.63c0,1.5-1.22,2.72-2.71,2.72h-6.35c-1.66-2.84-4.74-4.74-8.26-4.74-5.29,0-9.58,4.29-9.58,9.58s4.29,9.58,9.58,9.58c3.18,0,6-1.56,7.74-3.95h6.85c1.51,0,2.73,1.22,2.73,2.73v14.61c0,2.89,2.34,5.24,5.24,5.24h1.09c2.89,0,5.24-2.34,5.24-5.24v-14.57c0-1.53,1.24-2.78,2.78-2.78h14.02c2.89,0,5.24-2.34,5.24-5.24s-2.34-5.24-5.24-5.24Z"/>
      <path class="cls-1" d="M39.62,59.82c1.8,0,3.57-.16,5.28-.47,1.92-.34,3.32-2,3.32-3.95v-4.54c0-2.23-2.08-3.88-4.25-3.34-1.94.48-3.99.64-6.12.44-8.45-.8-15.34-7.57-16.26-16-1.19-10.93,7.33-20.18,18.02-20.18,1.38,0,2.73.16,4.02.45,2.35.53,4.58-1.34,4.58-3.76v-2.82c0-2.75-2.05-5.05-4.77-5.4-2.01-.26-4.07-.32-6.18-.15C22.47,1.24,10.59,13.37,9.76,28.19c-.97,17.3,12.77,31.63,29.86,31.63Z"/>
    </g>
  </g>
</svg>