<?xml version="1.0" encoding="UTF-8"?>
<svg id="Capa_2" data-name="Capa 2" xmlns="http://www.w3.org/2000/svg" viewBox="0 0 600.34 110.46">
  <defs>
    <style>
      .cls-1 {
        fill: #fff;
      }
    </style>
  </defs>
  <g id="Capa_1-2" data-name="Capa 1">
    <g>
      <g>
        <path class="cls-1" d="M15.3,81.81h-.31c-.13,0-.25,0-.37,0,.22,0,.44,0,.68,0h0Z"/>
        <g>
          <path class="cls-1" d="M97.66,23.96h21.81c3.29,0,6.12.53,8.48,1.58,2.36,1.06,4.3,2.44,5.83,4.15,1.52,1.71,2.64,3.67,3.36,5.87.71,2.21,1.07,4.49,1.07,6.85s-.3,4.75-.89,6.99c-.59,2.24-1.6,4.21-3.03,5.92-1.43,1.71-3.34,3.06-5.73,4.06-2.39,1-5.42,1.49-9.09,1.49h-13.42v24.61c0,2.32-1.88,4.19-4.19,4.19h0c-2.32,0-4.19-1.88-4.19-4.19V23.96h0ZM119.37,53.41c2.24,0,4.06-.28,5.45-.84,1.4-.56,2.47-1.32,3.22-2.28.75-.96,1.24-2.13,1.49-3.49.25-1.37.37-2.83.37-4.38s-.2-2.9-.61-4.24c-.4-1.34-1.04-2.5-1.91-3.49-.87-.99-1.96-1.79-3.26-2.38-1.31-.59-2.89-.89-4.75-.89h-13.33v22h13.33,0Z"/>
          <path class="cls-1" d="M146.45,19.21h0c2.29,0,4.15,1.86,4.15,4.15v62.17c0,2.29-1.86,4.15-4.15,4.15h0c-2.29,0-4.15-1.86-4.15-4.15V23.35c0-2.29,1.86-4.15,4.15-4.15Z"/>
          <path class="cls-1" d="M194.78,79.98c-1.62,3.11-3.87,5.7-6.76,7.78-2.89,2.08-6.42,3.15-10.58,3.22-3.67.06-6.96-.56-9.88-1.86-2.92-1.31-5.39-3.11-7.41-5.41-2.02-2.3-3.57-5-4.66-8.11-1.09-3.11-1.63-6.37-1.63-9.79,0-4.04.7-7.58,2.1-10.62,1.4-3.04,3.25-5.61,5.55-7.69,2.3-2.08,4.95-3.65,7.97-4.71,3.01-1.06,6.11-1.58,9.27-1.58s6.03.55,8.95,1.63c2.92,1.09,5.51,2.63,7.78,4.61,2.27,1.99,4.1,4.35,5.5,7.08,1.4,2.74,2.1,5.75,2.1,9.04v21.95c0,2.29-1.86,4.15-4.15,4.15h0c-2.29,0-4.15-1.86-4.15-4.15v-5.55h0ZM178.19,84.27c2.55,0,4.83-.51,6.85-1.54,2.02-1.02,3.74-2.39,5.17-4.1,1.43-1.71,2.53-3.67,3.31-5.87.78-2.2,1.16-4.46,1.16-6.76,0-2.86-.44-5.37-1.31-7.55-.87-2.17-2.05-4.01-3.54-5.5-1.49-1.49-3.23-2.62-5.22-3.4-1.99-.78-4.1-1.16-6.34-1.16-2.05,0-4.04.36-5.96,1.07-1.93.71-3.64,1.8-5.13,3.26-1.49,1.46-2.69,3.28-3.59,5.45-.9,2.18-1.35,4.69-1.35,7.55,0,2.11.31,4.27.93,6.48.62,2.21,1.58,4.21,2.89,6.01,1.31,1.8,2.95,3.26,4.94,4.38,1.99,1.12,4.38,1.68,7.18,1.68h0Z"/>
          <path class="cls-1" d="M207.55,64.5c0-7.95,1.83-13.82,5.5-17.62,3.67-3.79,9.2-5.69,16.59-5.69s12.92,1.9,16.59,5.69c3.67,3.79,5.5,9.66,5.5,17.62v21.11c0,2.29-1.86,4.15-4.15,4.15h0c-2.29,0-4.15-1.86-4.15-4.15v-21.02c0-5.65-1.12-9.83-3.36-12.54-2.24-2.7-5.72-4.06-10.44-4.06s-8.2,1.35-10.44,4.06c-2.24,2.7-3.35,6.88-3.35,12.54v20.97c0,2.31-1.89,4.17-4.19,4.15h0c-2.27-.03-4.1-1.87-4.1-4.15v-21.06h0Z"/>
          <path class="cls-1" d="M296.21,68.73c2.67-1.64,5.99.68,5.4,3.75-.38,2.01-.99,3.84-1.81,5.47-1.74,3.45-4.57,6.38-8.48,8.79-2.91,1.79-5.92,2.95-9.02,3.48-3.11.53-6.15.42-9.13-.34-2.98-.75-5.78-2.13-8.4-4.13-2.62-2-4.92-4.61-6.91-7.84-2.02-3.28-3.36-6.56-4-9.85-.64-3.29-.65-6.44-.03-9.46.62-3.01,1.87-5.81,3.75-8.39,1.87-2.58,4.32-4.8,7.34-6.66,3.86-2.38,7.42-3.72,10.67-4.01,3.25-.29,6.28.18,9.08,1.41,2.8,1.23,5.35,3.09,7.65,5.57,2.3,2.49,4.4,5.33,6.31,8.54l-32.68,20.16c1.54,2.26,3.26,4.03,5.14,5.32,1.89,1.28,3.81,2.12,5.77,2.52,1.96.4,3.91.4,5.86,0,1.95-.4,3.71-1.09,5.3-2.06,2.17-1.34,3.79-2.97,4.86-4.91.83-1.5,1.4-3.15,1.71-4.93.18-1.02.77-1.91,1.65-2.45h0ZM287.98,53.66c-1.03-1.55-2.27-2.87-3.7-3.96-1.44-1.09-3-1.87-4.69-2.36-1.69-.49-3.47-.6-5.34-.32-1.87.28-3.79,1.02-5.74,2.23-1.96,1.21-3.5,2.64-4.64,4.29-1.14,1.65-1.93,3.38-2.38,5.19s-.57,3.64-.35,5.47c.22,1.84.71,3.54,1.46,5.12l25.39-15.66h0Z"/>
          <path class="cls-1" d="M328.99,88.15c0,1.32-.96,2.47-2.27,2.67-1.92.29-3.71.44-5.38.44-2.86,0-5.25-.42-7.18-1.26-1.93-.84-3.46-2.08-4.61-3.73-1.15-1.65-1.97-3.64-2.47-5.96-.5-2.33-.75-4.99-.75-7.97v-23.58h-4.47c-1.85,0-3.36-1.5-3.36-3.36h0c0-1.85,1.5-3.36,3.36-3.36h4.47v-8.53c0-2.29,1.86-4.15,4.15-4.15h0c2.29,0,4.15,1.86,4.15,4.15v8.53h9.6c1.85,0,3.36,1.5,3.36,3.36h0c0,1.85-1.5,3.36-3.36,3.36h-9.6v23.49c0,1.74.08,3.39.23,4.94.15,1.55.51,2.92,1.07,4.1.56,1.18,1.4,2.1,2.52,2.75,1.12.65,2.64.98,4.57.98.87,0,1.82-.08,2.84-.23.01,0,.02,0,.03,0,1.62-.25,3.09,1,3.09,2.64v.74h0Z"/>
          <path class="cls-1" d="M369.91,79.98c-1.62,3.11-3.87,5.7-6.76,7.78-2.89,2.08-6.42,3.15-10.58,3.22-3.67.06-6.96-.56-9.88-1.86-2.92-1.31-5.39-3.11-7.41-5.41-2.02-2.3-3.57-5-4.66-8.11-1.09-3.11-1.63-6.37-1.63-9.79,0-4.04.7-7.58,2.1-10.62,1.4-3.04,3.25-5.61,5.55-7.69,2.3-2.08,4.95-3.65,7.97-4.71,3.01-1.06,6.11-1.58,9.27-1.58s6.03.55,8.95,1.63c2.92,1.09,5.51,2.63,7.78,4.61,2.27,1.99,4.1,4.35,5.5,7.08,1.4,2.74,2.1,5.75,2.1,9.04v21.95c0,2.29-1.86,4.15-4.15,4.15h0c-2.29,0-4.15-1.86-4.15-4.15v-5.55h0ZM353.32,84.27c2.55,0,4.83-.51,6.85-1.54,2.02-1.02,3.74-2.39,5.17-4.1,1.43-1.71,2.53-3.67,3.31-5.87.78-2.2,1.16-4.46,1.16-6.76,0-2.86-.44-5.37-1.31-7.55-.87-2.17-2.05-4.01-3.54-5.5-1.49-1.49-3.23-2.62-5.22-3.4-1.99-.78-4.1-1.16-6.34-1.16-2.05,0-4.04.36-5.97,1.07-1.93.71-3.64,1.8-5.13,3.26-1.49,1.46-2.69,3.28-3.59,5.45-.9,2.18-1.35,4.69-1.35,7.55,0,2.11.31,4.27.93,6.48.62,2.21,1.58,4.21,2.89,6.01,1.31,1.8,2.95,3.26,4.94,4.38,1.99,1.12,4.38,1.68,7.18,1.68h0Z"/>
          <path class="cls-1" d="M420.61,90.84c-5.03,0-9.6-.89-13.7-2.66-4.1-1.77-7.61-4.18-10.53-7.22-2.92-3.04-5.17-6.62-6.76-10.72-1.58-4.1-2.38-8.51-2.38-13.24s.82-9.17,2.47-13.33c1.65-4.16,3.96-7.81,6.94-10.95,2.98-3.14,6.58-5.62,10.81-7.46,4.22-1.83,8.89-2.75,13.98-2.75,6.53,0,12.15,1.37,16.87,4.1,3.3,1.91,6.23,4.3,8.77,7.15,1.71,1.92,1.15,4.95-1.13,6.15h0c-1.69.89-3.76.43-4.95-1.05-1.86-2.32-4.1-4.24-6.7-5.77-3.54-2.08-7.83-3.12-12.86-3.12-4.04,0-7.64.75-10.81,2.24-3.17,1.49-5.86,3.48-8.06,5.96-2.21,2.49-3.88,5.36-5.03,8.62-1.15,3.26-1.73,6.66-1.73,10.21s.53,6.73,1.58,9.93c1.06,3.2,2.62,6.03,4.71,8.48,2.08,2.46,4.67,4.41,7.78,5.87,3.11,1.46,6.68,2.19,10.72,2.19,3.54,0,6.71-.56,9.51-1.68,2.8-1.12,5.2-2.66,7.22-4.61,2.02-1.96,3.67-4.24,4.94-6.85.77-1.58,1.39-3.23,1.85-4.94.47-1.74-.87-3.45-2.67-3.45h-18.61c-2.01,0-3.64-1.63-3.64-3.64h0c0-2.01,1.63-3.64,3.64-3.64h28.04c1.58,0,2.83,1.33,2.72,2.91v.03c-.06.9-.37,1.79-.56,2.75-.85,4.35-1.31,8.19-2.98,11.88-1.68,3.7-3.93,6.93-6.76,9.69-2.83,2.76-6.15,4.94-9.97,6.52-3.82,1.58-8.06,2.38-12.72,2.38h0Z"/>
          <path class="cls-1" d="M461.76,42.55c2.29,0,4.15,1.86,4.15,4.15v21.02c0,11.06,4.6,16.59,13.79,16.59,4.78,0,8.28-1.35,10.49-4.06,2.2-2.7,3.31-6.88,3.31-12.54v-20.97c0-2.31,1.89-4.17,4.19-4.15h0c2.27.03,4.1,1.87,4.1,4.15v21.06c0,7.95-1.83,13.83-5.5,17.62-3.67,3.79-9.2,5.69-16.59,5.69s-12.93-1.89-16.59-5.69c-3.67-3.79-5.5-9.66-5.5-17.62v-21.11c0-2.29,1.86-4.15,4.15-4.15h0Z"/>
          <path class="cls-1" d="M506.36,64.65c0-4.47.5-8.17,1.49-11.09.99-2.92,2.42-5.23,4.29-6.94,1.86-1.71,4.15-2.92,6.85-3.64,2.7-.71,5.76-1.07,9.18-1.07,1.24,0,2.49.03,3.73.09.3.02.6.03.91.05,1.69.1,3.01,1.49,3.01,3.18h0c0,1.81-1.51,3.26-3.32,3.18-1.2-.05-2.36-.08-3.48-.08-2.11,0-4.06.2-5.83.61-1.77.4-3.29,1.18-4.57,2.33-1.27,1.15-2.27,2.8-2.98,4.94-.72,2.14-1.07,4.99-1.07,8.53v21.06c0,2.27-1.84,4.1-4.1,4.1h0c-2.27,0-4.1-1.84-4.1-4.1v-21.16h0Z"/>
          <path class="cls-1" d="M543.13,42.55c2.29,0,4.15,1.86,4.15,4.15v21.02c0,11.06,4.6,16.59,13.79,16.59,4.78,0,8.28-1.35,10.49-4.06,2.2-2.7,3.31-6.88,3.31-12.54v-20.97c0-2.31,1.89-4.17,4.19-4.15h0c2.27.03,4.1,1.87,4.1,4.15v21.06c0,7.95-1.83,13.83-5.5,17.62-3.67,3.79-9.2,5.69-16.59,5.69s-12.93-1.89-16.59-5.69c-3.67-3.79-5.5-9.66-5.5-17.62v-21.11c0-2.29,1.86-4.15,4.15-4.15h0Z"/>
        </g>
        <g>
          <path class="cls-1" d="M39.49,0C23.04,0,9.71,13.33,9.71,29.78s13.33,29.77,29.77,29.77,29.78-13.33,29.78-29.77S55.94,0,39.49,0h0ZM39.49,47.9c-10.01,0-18.12-8.12-18.12-18.12s8.12-18.12,18.12-18.12,18.12,8.12,18.12,18.12-8.11,18.12-18.12,18.12Z"/>
          <circle class="cls-1" cx="39.43" cy="29.78" r="9.58"/>
          <path class="cls-1" d="M78.93,89.02c0,11.82-9.79,21.45-21.81,21.45h-6.45c-3.99,0-7.22-3.18-7.22-7.11s3.23-7.1,7.22-7.1h6.45c4.05,0,7.37-3.25,7.37-7.24s-3.31-7.24-7.37-7.24H18.43c-.23,0-.45,0-.68,0h-.05c-10.47-.34-17.69-8.71-17.69-19.42,0-3.92,3.23-7.24,7.22-7.11,4.01.14,6.74,3.1,6.94,7.08.21,4.4,2.87,5.25,4.27,5.25h38.69c12.02,0,21.81,9.62,21.81,21.45h0Z"/>
        </g>
      </g>
      <path class="cls-1" d="M597.44,43.32c.91.51,1.62,1.22,2.14,2.14.51.92.76,1.96.76,3.13s-.25,2.18-.76,3.08c-.51.91-1.22,1.62-2.14,2.14-.92.52-1.95.78-3.1.78s-2.18-.26-3.1-.78c-.92-.52-1.63-1.23-2.15-2.14-.52-.9-.78-1.93-.78-3.08s.26-2.21.78-3.13c.52-.91,1.23-1.62,2.15-2.14.91-.51,1.95-.76,3.1-.76s2.18.25,3.1.76ZM597.61,51.87c.82-.84,1.23-1.94,1.23-3.29s-.41-2.48-1.23-3.32c-.82-.84-1.91-1.26-3.27-1.26s-2.44.42-3.25,1.26c-.81.84-1.22,1.95-1.22,3.32s.41,2.48,1.22,3.31c.81.83,1.89,1.24,3.25,1.24s2.45-.42,3.27-1.26ZM596.71,48.52c-.2.3-.48.53-.83.68l1.47,2.32h-2.21l-1.22-2.12h-.17v2.12h-1.89v-6.05h2.97c.66,0,1.19.18,1.58.55s.59.84.59,1.43c0,.42-.1.77-.3,1.07ZM593.72,47.98h.9c.13,0,.25-.04.34-.11s.14-.19.14-.34c0-.28-.16-.42-.48-.42h-.9v.88Z"/>
    </g>
  </g>
</svg>