<svg width="65" height="35" viewBox="0 0 65 35" fill="none" xmlns="http://www.w3.org/2000/svg">
<g clip-path="url(#clip0_7965_2446)">
<path d="M0.0444336 4.76071C0.0444336 2.78042 1.63288 1.17401 3.59093 1.17401H60.7411C62.699 1.17401 64.2857 2.78042 64.2857 4.76071V4.87469H0.0444336V4.76071ZM64.2857 30.1503V30.2393C64.2857 32.2196 62.699 33.826 60.7411 33.826H3.59093C1.63295 33.826 0.0444336 32.2196 0.0444336 30.2393V30.1503H64.2857Z" fill="white"/>
<path d="M44.5048 17.4617C44.5048 22.4748 48.5221 26.5387 53.4793 26.5387C58.4348 26.5387 62.4539 22.4748 62.4539 17.4617C62.4539 12.4468 58.4348 8.38292 53.4793 8.38292C48.5221 8.38292 44.5048 12.4468 44.5048 17.4617ZM1.71641 17.4617C1.71641 22.4748 5.73541 26.5387 10.6927 26.5387C15.6482 26.5387 19.6672 22.4748 19.6672 17.4617C19.6672 12.4468 15.6482 8.38292 10.6927 8.38292C5.73548 8.38292 1.71641 12.4468 1.71641 17.4617ZM64.2857 28.4317H20.035C20.8328 27.8654 21.5755 27.0908 22.3856 26.0454L26.8934 20.2274L28.862 22.7437L31.0528 19.7963L29.1374 17.3299L33.7251 11.4068C35.1821 9.52803 32.396 7.31972 30.9391 9.19853L26.8845 14.4342L22.7623 9.12906C21.3036 7.25563 18.5229 9.46926 19.9817 11.3444L24.6404 17.3317L19.5997 23.8371C17.8087 26.1487 16.0212 28.2679 12.473 28.4317H0.0444336V6.59314H44.0624C43.3055 7.15235 42.5912 7.90205 41.8165 8.90292L37.3106 14.7192L35.3402 12.2046L33.1512 15.152L35.0666 17.6166L30.4772 23.5397C29.022 25.4185 31.8079 27.6268 33.2632 25.748L37.3195 20.514L41.4416 25.8174C42.9004 27.6927 45.681 25.4791 44.2223 23.6039L39.5636 17.6149L44.6043 11.1112C46.2496 8.98483 47.8932 7.02236 50.903 6.59314H64.2857V28.4317ZM48.1064 17.4617C48.1064 14.4592 50.5121 12.0265 53.4793 12.0265C56.4466 12.0265 58.8506 14.4592 58.8506 17.4617C58.8506 20.4624 56.4466 22.895 53.4793 22.895C50.5121 22.895 48.1064 20.4624 48.1064 17.4617ZM5.31972 17.4617C5.31972 14.4592 7.72546 12.0265 10.6927 12.0265C13.6581 12.0265 16.0639 14.4592 16.0639 17.4617C16.0639 20.4624 13.6582 22.895 10.6927 22.895C7.72546 22.895 5.31972 20.4624 5.31972 17.4617Z" fill="white"/>
</g>
<defs>
<clipPath id="clip0_7965_2446">
<rect width="64.2857" height="35" fill="white"/>
</clipPath>
</defs>
</svg>
