<svg width="17" height="19" viewBox="0 0 17 19" fill="none" xmlns="http://www.w3.org/2000/svg">
<path d="M13.5536 17.7788C12.5736 18.7288 11.5036 18.5788 10.4736 18.1288C9.38358 17.6688 8.38358 17.6488 7.23358 18.1288C5.79358 18.7488 5.03358 18.5688 4.17358 17.7788C-0.706418 12.7488 0.0135822 5.08884 5.55358 4.80884C6.90358 4.87884 7.84358 5.54884 8.63358 5.60884C9.81358 5.36884 10.9436 4.67884 12.2036 4.76884C13.7136 4.88884 14.8536 5.48884 15.6036 6.56884C12.4836 8.43884 13.2236 12.5488 16.0836 13.6988C15.5136 15.1988 14.7736 16.6888 13.5436 17.7888L13.5536 17.7788ZM8.53358 4.74884C8.38358 2.51884 10.1936 0.67884 12.2736 0.49884C12.5636 3.07884 9.93358 4.99884 8.53358 4.74884Z" fill="white"/>
</svg>
