<svg width="29" height="13" viewBox="0 0 29 13" fill="none" xmlns="http://www.w3.org/2000/svg">
<path d="M28.5147 0.381319C28.4955 0.331764 28.4661 0.28797 28.4287 0.251092C28.3914 0.213061 28.3484 0.183097 28.2997 0.162353C28.251 0.141609 28.199 0.132389 28.1469 0.132389C28.0926 0.132389 28.0417 0.141609 27.9941 0.162353C27.9466 0.181945 27.9036 0.211908 27.8674 0.249939C27.83 0.28797 27.7995 0.334069 27.7791 0.383624C27.7587 0.43318 27.7485 0.48504 27.7485 0.539206C27.7485 0.593371 27.7587 0.644079 27.7791 0.693635C27.7995 0.74319 27.8289 0.786984 27.8662 0.825015C27.9047 0.864198 27.9477 0.89301 27.9952 0.913754C28.0428 0.934498 28.0948 0.94487 28.1469 0.94487C28.2001 0.94487 28.2499 0.934498 28.2986 0.913754C28.3472 0.89301 28.3925 0.861893 28.4298 0.823862C28.4672 0.785831 28.4955 0.743191 28.5147 0.694787C28.534 0.645232 28.5442 0.592219 28.5442 0.539206C28.5442 0.48504 28.534 0.43318 28.5147 0.383624V0.381319ZM28.2125 0.800813L28.1164 0.589914H28.0994V0.800813H27.9285V0.248787H28.1503C28.2273 0.248787 28.2861 0.262616 28.3269 0.290275C28.3676 0.317934 28.388 0.35827 28.388 0.411283C28.388 0.464296 28.3778 0.476973 28.3597 0.50348C28.3404 0.528834 28.3144 0.548425 28.2793 0.55995L28.3982 0.800813H28.2125Z" fill="white"/>
<path d="M28.1933 0.3721C28.1797 0.361728 28.1571 0.357118 28.1265 0.357118H28.1005V0.488498H28.1367C28.1627 0.488498 28.182 0.482735 28.1944 0.471211C28.208 0.459686 28.2137 0.443552 28.2137 0.421655C28.2137 0.399759 28.2069 0.383624 28.1922 0.373252L28.1933 0.3721Z" fill="white"/>
<path d="M4.97072 9.19415C4.9843 9.08006 5.13143 9.01206 5.13935 8.89682C5.14388 8.59141 5.13143 8.26873 5.12917 7.94719C5.1269 7.64525 5.13596 7.34446 5.11106 7.06095C5.09068 6.92957 4.88697 6.92496 4.86547 6.79358C4.79643 6.38446 4.97411 5.95344 4.89376 5.54663C4.8632 5.38874 4.60063 5.37376 4.55536 5.22048C4.50443 5.04761 4.67307 4.86898 4.58253 4.71571C4.48859 4.55667 4.02683 4.69035 4.07097 4.50826C4.11398 4.33194 4.29619 4.18903 4.39918 4.0346C4.57687 3.76723 4.74097 3.51369 4.87905 3.24287C4.97977 3.04464 5.04768 2.8372 5.04994 2.60786C5.05334 2.33358 4.99222 1.92907 4.9628 1.57065C4.9379 1.27908 4.79982 1.10621 4.60742 0.896467C4.48746 0.765087 4.25771 0.781222 4.1004 0.705159C3.98609 0.648689 3.94421 0.422808 3.81859 0.411283C3.03315 0.331764 2.2228 0.411283 1.4351 0.448162C1.33437 0.452772 1.27099 0.512699 1.1714 0.531139C0.985791 0.563407 0.671161 0.474668 0.501397 0.561103C0.397275 0.610658 0.319184 0.850369 0.36785 0.9587C0.492343 1.23759 0.762834 1.36897 0.976737 1.57757C1.01182 1.61214 1.13179 1.55337 1.15329 1.59831C1.19064 1.67783 1.18159 1.78155 1.15329 1.86568C1.13066 1.93137 1.01635 1.94405 1.01295 2.01435C1.03332 2.79687 1.00503 3.58515 0.988054 4.36882C0.981264 4.6915 1.07973 4.50596 1.14763 4.66615C1.18951 4.76526 1.17932 4.88857 1.14763 4.9923C1.06501 5.26773 1.04238 5.26543 1.05143 5.56968C1.05709 5.77366 1.03332 6.13668 1.11368 6.23003C1.16914 6.32684 1.11708 6.44785 1.11708 6.52621C1.11708 6.72559 1.09331 6.73596 1.03106 6.85005C1.03106 7.08746 0.973341 8.96135 1.02993 9.52606C1.12387 9.89254 1.09557 10.9805 1.00164 11.8022C0.904304 11.9969 0.954102 12.2355 0.871483 12.3392C0.823949 12.4003 0.742462 12.4498 0.663239 12.4879C0.608915 12.5132 0.487816 12.5121 0.442546 12.5489C0.366718 12.6112 0.40633 12.7149 0.619101 12.7598C0.974473 12.8336 1.54149 12.7426 1.83348 12.7702C2.12095 12.7967 1.93194 12.852 2.18433 12.6446C2.2262 12.6043 2.30995 12.6066 2.35296 12.6446C2.42765 12.7091 2.39823 12.7898 2.4933 12.8025C2.61439 12.8186 2.62571 12.7207 2.74115 12.6769C2.86564 12.6296 3.07955 12.6907 3.18027 12.5997C3.2595 12.5927 3.42473 12.3692 3.68278 12.1732C3.85933 12.0396 4.13774 11.8794 4.36183 11.8068C4.49764 11.6408 4.47388 11.2524 4.55763 10.9874C4.65496 10.6808 4.90281 10.4584 4.97298 10.1438C5.03862 9.84529 4.93677 9.5007 4.97185 9.19645L4.97072 9.19415ZM2.68004 1.85646C2.67664 1.71702 2.78642 1.72624 2.91771 1.69973C3.04899 1.7078 3.30024 1.69166 3.3274 1.76081C3.35343 1.83111 3.35117 1.93253 3.58205 1.90602C3.81293 1.87951 3.74615 2.04086 3.64995 2.13651C3.55376 2.23216 3.61034 2.30246 3.67033 2.37161C3.73031 2.44191 3.71786 2.61593 3.6624 2.67701C3.60582 2.73809 3.67033 2.95591 3.70088 3.18294C3.73144 3.40997 3.6409 3.42726 3.6409 3.42726C3.6409 3.42726 3.55036 3.45377 3.37833 3.47912C3.27534 3.4941 3.15198 3.70039 3.06823 3.86635C3.00372 3.99427 2.97882 4.04613 2.93468 4.06457C2.89054 4.08301 2.82603 4.06918 2.68343 4.06457C2.68343 4.06457 2.66646 2.80839 2.66419 2.73809C2.66193 2.66894 2.68456 1.99591 2.68004 1.85531V1.85646ZM3.73597 9.24025L3.56394 9.94094C3.55715 10.1173 3.54131 10.2947 3.52886 10.4711C3.51075 10.7407 3.47453 10.7477 3.29119 10.9401C3.12369 11.1153 2.90865 11.2651 2.74681 11.4218C2.56799 11.491 2.42992 11.4979 2.2511 11.5671L2.44803 11.181L2.39144 9.90406L2.56007 9.66666V8.38052C2.56007 8.18575 2.53291 7.99099 2.53291 7.79622C2.33485 7.62911 2.42992 7.63257 2.5895 7.44011C2.5895 7.25226 2.63363 7.10014 2.63363 6.91229L2.57705 6.43747L2.66193 6.20007C2.66193 5.96151 2.68909 5.76905 2.68909 5.53164C2.68909 5.29424 2.69588 5.23316 2.73549 5.24699C2.7751 5.26082 2.8498 5.36454 2.98448 5.49592L3.29232 5.79786C3.48245 5.98341 3.66693 6.00069 3.58997 6.30494C3.51754 6.5896 3.72465 6.66797 3.66014 6.95032C3.61147 7.16583 3.54696 7.29836 3.56055 7.43204C3.5696 7.51272 3.60582 7.59339 3.69183 7.69365C3.7337 7.74321 3.76087 7.76395 3.76992 7.79046V7.78585V7.79161C3.77445 7.80544 3.77332 7.82042 3.76766 7.84117L3.7337 8.71703C3.78577 8.91295 3.78124 9.04433 3.7337 9.2414L3.73597 9.24025Z" fill="white"/>
<path d="M12.9078 12.4498C12.8251 12.0142 13.073 11.1902 12.8444 11.1821C12.4426 11.1372 11.7511 11.1648 11.2101 11.1683C10.6386 11.1718 10.1123 11.1234 9.54529 11.2017C9.41401 11.219 9.34045 11.3573 9.21256 11.3919C8.99639 11.4507 8.75533 11.4437 8.53576 11.4034C8.36826 11.3723 8.24377 11.2593 8.07514 11.2755C7.9348 11.2893 7.87708 11.4829 7.74127 11.5198C7.50133 11.5843 7.20595 11.6028 6.96714 11.5313C6.89471 11.5106 6.98412 11.3711 6.94904 11.3031C6.9264 11.2605 6.81549 11.2939 6.81888 11.2467C6.82454 11.1602 6.95356 11.1222 6.96828 11.0381C7.00562 10.8133 6.93545 10.5794 6.96828 10.3547C6.97507 10.3097 7.07353 10.3236 7.08032 10.2786C7.10182 10.1276 7.01807 9.97321 7.04297 9.82224C7.05203 9.76922 7.14709 9.77499 7.17312 9.72774C7.21274 9.65398 7.2116 9.58483 7.18897 9.50416C7.17312 9.44654 7.12446 9.47304 7.09616 9.42118C7.06674 9.36586 7.08824 9.2656 7.12446 9.21374C7.17426 9.14229 7.33044 9.08697 7.32591 8.99938C7.31459 8.8173 7.28856 8.72971 7.30215 8.54532C7.30667 8.47847 7.17426 8.41509 7.16407 8.34825C7.14709 8.23185 7.16067 8.10738 7.15841 7.99444C7.15728 7.9057 7.13012 7.82503 7.17312 7.74551C7.2116 7.67406 7.25801 7.55305 7.26253 7.45625C7.2897 6.77975 7.35421 6.09865 7.28404 5.42447C7.27159 5.30346 7.08371 5.26082 7.07127 5.13981C6.99996 4.42874 7.01128 3.70846 7.05316 2.99394C7.05655 2.93747 7.16068 2.97319 7.17426 2.91787C7.21047 2.77036 7.20368 2.59403 7.15615 2.45113C7.13578 2.39005 7.04863 2.41886 7.01694 2.36239C6.9728 2.28518 6.95583 2.18837 6.97959 2.10194C6.99317 2.05238 7.08824 2.07658 7.09277 2.02587C7.10635 1.8749 7.08258 1.72508 7.08485 1.57642C7.08711 1.40816 7.11201 1.2422 7.05542 1.08086C7.01128 0.952937 6.93545 0.912601 6.84831 0.821557C6.7804 0.751258 6.70797 0.62564 6.62196 0.565712C6.56311 0.525376 6.44767 0.582999 6.38316 0.553035C6.28696 0.508089 6.2813 0.375557 6.17831 0.352508C5.94177 0.299495 5.70297 0.406673 5.4619 0.373252C5.40645 0.365185 5.40758 0.259159 5.35891 0.232653C5.29893 0.200384 5.21405 0.190012 5.15972 0.232653C5.08955 0.28797 5.03862 0.42396 5.08163 0.502327C5.14954 0.624488 5.26837 0.687873 5.35665 0.770849C5.45058 0.859589 5.5151 0.967919 5.62714 1.06473C5.67015 1.10276 5.77653 1.0751 5.81162 1.12004C5.86368 1.18573 5.84557 1.25142 5.88405 1.32633C5.90442 1.36667 5.98025 1.41046 5.99043 1.45426C6.02099 1.59025 6.02439 1.73776 5.99043 1.87144C5.97233 1.9452 5.8931 1.99015 5.86368 2.05929C5.83991 2.11807 5.81501 2.17454 5.84104 2.23216C5.86934 2.29324 5.95309 2.28172 5.9678 2.34741C6.01307 2.55139 5.98251 2.77497 5.98591 2.97434C5.9893 3.10457 5.71315 3.10803 5.70976 3.23826C5.70636 3.40767 5.72787 3.62318 5.73013 3.85482C5.73239 4.07494 5.85462 4.00349 5.85915 4.05535C5.90103 4.59816 5.82859 5.111 5.87047 5.6538C5.87386 5.70221 5.96893 5.70221 5.9893 5.746C6.03231 5.8382 6.02439 5.95114 5.99723 6.05025C5.98138 6.11133 5.88405 6.10096 5.87726 6.16434C5.83765 6.53543 5.94743 6.91459 5.89537 7.28453C5.88518 7.35483 5.78106 7.3168 5.74824 7.37903C5.70184 7.46892 5.74484 7.50695 5.75277 7.60722C5.75729 7.67291 5.73805 7.80659 5.74597 7.87228C5.75616 7.95411 5.77427 8.04169 5.74597 8.11891C5.73126 8.15809 5.63733 8.15694 5.63393 8.19843C5.61582 8.42661 5.63053 8.65019 5.62714 8.87377C5.62374 9.08351 5.6045 9.31055 5.63959 9.52145C5.65883 9.63669 5.83199 9.63439 5.89537 9.73235C5.92592 9.7796 5.92253 9.85335 5.89537 9.90291C5.86594 9.95477 5.76182 9.93979 5.74597 9.99741C5.71202 10.1253 5.78106 10.221 5.74711 10.3501C5.729 10.4192 5.63619 10.3916 5.62374 10.5229C5.6045 10.7281 5.61016 10.9378 5.6328 11.1441C5.65883 11.3746 5.69957 11.2133 5.76408 11.2905C5.79238 11.3239 5.78559 11.385 5.76408 11.423C5.73692 11.4702 5.64638 11.4656 5.63393 11.5175C5.59319 11.6892 5.6826 11.8897 5.5864 12.0373C5.42455 12.2896 5.07371 12.3196 4.89602 12.5605C4.85075 12.6227 4.96506 12.7691 5.03749 12.791C5.10427 12.8106 5.21744 12.7552 5.28648 12.7541C5.5117 12.7495 5.75955 12.8244 5.97119 12.7495C6.25527 12.6481 6.25414 12.4026 6.52689 12.2724C6.67289 12.2021 6.95017 12.2205 7.10522 12.2666C7.215 12.2989 7.23084 12.3599 7.40287 12.3703C8.20982 12.4153 8.98168 12.3288 9.78749 12.3888C9.86671 12.3945 9.8769 12.5489 9.95499 12.5593C10.3002 12.6077 10.6476 12.5201 10.9939 12.5616C11.123 12.5778 11.2667 12.7011 11.3935 12.7322C11.4783 12.7529 11.5734 12.6792 11.6549 12.7126C11.7285 12.7437 11.7251 12.8993 11.8043 12.9028C12.2083 12.92 12.5852 12.8912 12.9576 12.8924C13.1556 12.8924 13.1262 12.8221 13.0492 12.6826C13.0017 12.595 12.9213 12.542 12.9044 12.4475L12.9078 12.4498Z" fill="white"/>
<path d="M13.1013 7.8573C13.0379 7.90455 13.0956 8.07396 13.0526 8.1408C13.0311 8.17422 12.9564 8.10738 12.936 8.1408C12.9157 8.17422 12.9417 8.22724 12.9519 8.26988C12.9576 8.29523 12.9576 8.31713 12.936 8.3275C12.8263 8.38282 12.6644 8.25144 12.5682 8.3275C12.4732 8.40241 12.5795 8.54762 12.4992 8.63982C12.369 8.78733 12.0895 8.87377 11.9605 9.02243C11.8066 9.19876 11.8201 9.37854 11.6424 9.53067C11.5032 9.64937 11.2678 9.66205 11.1003 9.73119C10.9057 9.81187 10.8129 9.96053 10.6103 10.0182C10.5492 10.0354 10.4745 9.92711 10.4937 9.86488C10.6454 9.36471 10.8423 8.86109 11.0064 8.36438C11.1117 8.0463 11.1603 7.84462 11.2746 7.52885C11.3923 7.20271 11.5451 6.79819 11.7375 6.51123C11.7749 6.45476 11.9016 6.49164 11.9209 6.42595C11.9707 6.26345 11.8767 6.07906 11.9209 5.91541C11.9537 5.79325 12.0793 5.67685 12.1834 5.60886C12.2536 5.56276 12.3656 5.6273 12.3973 5.54778C12.4698 5.36339 12.4019 5.16747 12.4483 4.97501C12.4788 4.84478 12.5671 4.76526 12.6226 4.64425C12.6961 4.48291 12.6916 4.34346 12.7731 4.18673C12.8398 4.05881 12.9802 3.88018 13.0198 3.74188C13.0753 3.55173 13.03 3.45838 13.0481 3.26015C13.0526 3.20714 13.1296 3.17718 13.1318 3.12416C13.1579 2.4834 13.1907 1.84033 13.1545 1.20072C13.1511 1.14885 13.0368 1.15116 13.0379 1.09815C13.0424 0.902229 13.0651 0.729361 13.0549 0.553035C13.0526 0.518462 13.0651 0.490803 13.0311 0.488498C12.5071 0.466601 11.991 0.478126 11.467 0.48504C11.0381 0.48965 10.608 0.455077 10.1802 0.48504C10.1157 0.48965 10.058 0.501175 10.0127 0.549578C9.9697 0.595676 9.94933 0.694787 9.9516 0.758172C9.96291 1.04283 9.94594 1.35284 9.9516 1.69397C9.9516 1.75735 10.075 1.71932 10.0965 1.77925C10.1553 1.9452 10.1598 2.13075 10.1463 2.30707C10.1417 2.36354 10.075 2.43961 10.0761 2.49608C10.1033 2.69315 10.1281 2.83259 10.1632 3.0216C10.1836 3.09535 10.2459 3.15182 10.264 3.22558C10.2855 3.31432 10.2062 3.4918 10.2957 3.49756C10.3251 3.49986 10.4281 3.51715 10.4813 3.49756C10.5492 3.47221 10.4564 3.34544 10.4813 3.27629C10.4994 3.22673 10.5899 3.22558 10.5978 3.17372C10.642 2.89367 10.565 2.56522 10.6091 2.28402C10.6227 2.19874 10.6703 2.1077 10.7427 2.06275C10.8038 2.02357 10.9159 2.12038 10.96 2.06275C11.0211 1.98208 10.96 1.88873 10.9996 1.79423C11.0539 1.65824 11.1433 1.53378 11.2509 1.43697C11.3493 1.34708 11.4478 1.24105 11.5791 1.22722C11.8722 1.19611 12.2242 1.22376 12.6214 1.20648C12.6588 1.20417 12.669 1.26295 12.6712 1.30098C12.6848 1.48768 12.7188 1.74122 12.6712 1.86223C12.6022 2.03855 12.4471 2.23562 12.2887 2.41886C12.18 2.54448 12.0714 2.65511 11.9876 2.78073C11.888 2.93055 12.0374 3.13569 11.9854 3.30971C11.9333 3.48719 11.7896 3.67734 11.6787 3.82486C11.5881 3.94587 11.4534 4.0081 11.3686 4.13256C11.2622 4.2893 11.1999 4.44257 11.1332 4.62005C11.0777 4.76757 11.0415 4.92315 11.0166 5.07988C10.9973 5.20319 11.0551 5.34264 10.9996 5.45443C10.96 5.53625 10.8683 5.52127 10.8106 5.59042C10.7291 5.68723 10.6816 5.81054 10.6431 5.93039C10.5978 6.0733 10.5933 6.15743 10.522 6.28881C10.4416 6.43632 10.2809 6.57923 10.2085 6.7302C10.1293 6.895 10.1202 7.09553 10.0806 7.27531C10.0421 7.44818 10.0104 7.61183 9.97536 7.78585C9.93236 7.99905 9.88709 8.21571 9.89161 8.43237C9.89275 8.49806 9.96178 8.54416 9.99234 8.60294C10.0184 8.65249 10.0761 8.7032 10.0591 8.75622C10.0353 8.82882 9.90293 8.83343 9.89161 8.90949C9.8803 8.98786 9.90067 9.05931 9.95612 9.11348C10.0048 9.16073 10.1044 9.13998 10.1395 9.19876C10.1768 9.26214 10.17 9.35319 10.1395 9.42003C10.1134 9.47535 10.0229 9.46267 10.0116 9.5226C9.96405 9.76807 10.0229 9.94209 9.97989 10.1876C9.9697 10.2463 9.83616 10.2475 9.84634 10.3063C9.86106 10.3892 9.86558 10.5195 9.9482 10.5298C10.1859 10.561 10.5129 10.4642 10.7495 10.5091C10.8423 10.5264 10.848 10.6889 10.9328 10.7304C11.003 10.7292 11.1117 10.7315 11.1999 10.7304C11.269 10.6935 11.2497 10.5656 11.3165 10.5264C11.3991 10.4768 11.5112 10.4584 11.6006 10.4918C11.6492 10.5103 11.5836 10.6393 11.6345 10.6451C12.051 10.629 12.4234 10.6751 12.8172 10.6451C12.8964 10.6324 12.8161 10.5172 12.8806 10.4699C12.9542 10.4158 13.1352 10.5103 13.1477 10.4192C13.2122 9.9467 13.1115 9.41888 13.1556 8.94407C13.1692 8.79194 13.3129 8.70205 13.3446 8.55223C13.3548 8.50268 13.4137 8.50152 13.4182 8.45312C13.434 8.28256 13.4318 8.07627 13.3888 7.90801C13.3322 7.84923 13.1613 7.82849 13.1047 7.855L13.1013 7.8573Z" fill="white"/>
<path d="M3.77332 7.7847V7.78931V7.79161V7.7847Z" fill="white"/>
<path d="M3.77105 7.84001L3.77332 7.79046V7.78815L3.75294 7.89187C3.762 7.87113 3.76766 7.85384 3.77218 7.84001H3.77105Z" fill="white"/>
<path d="M7.40627 0.8181C7.52058 0.891857 7.61904 0.975987 7.75032 0.978291C7.91103 0.981749 8.03779 1.03476 8.09438 1.19841L8.13738 3.15643C8.14191 3.63816 8.15662 4.11989 8.16115 4.60046C8.16568 5.08219 8.16115 5.56391 8.16568 6.04449L8.19397 7.74205C8.19397 7.74205 8.16568 7.95411 8.12267 8.00366C8.07966 8.05206 8.09438 8.47732 8.09438 8.47732C8.25282 8.61792 8.21887 8.59833 8.10909 8.78733L8.0808 10.0435L7.96649 10.2717C7.96649 10.2717 7.55453 10.5172 7.55453 10.7292C7.55453 10.7292 7.61225 10.9897 7.75598 10.8917C7.89858 10.7938 7.95743 10.6474 8.10004 10.6474C8.24264 10.6474 8.84021 10.5333 8.98281 10.6474C9.12541 10.7615 9.14012 10.6635 9.21142 10.6635C9.28273 10.6635 9.49323 10.7016 9.49323 10.7016C9.67658 10.682 9.63923 10.3858 9.50681 10.2994C9.31555 10.1472 9.05864 10.0493 8.86737 9.89715L8.80965 9.45691L8.96696 9.22872V8.49461L8.88095 8.29869L8.85266 7.74436L8.78136 7.6464V7.43435C8.82889 7.36405 8.92622 7.2926 8.97375 7.2223C8.98847 7.08631 8.92396 6.99065 8.93867 6.85466C8.90472 6.68064 8.90132 6.46629 8.86737 6.29227V5.65611C9.00544 5.61462 9.0394 5.55124 9.04958 5.48785C9.06203 5.40603 9.02355 5.31037 8.98168 5.11676C8.96244 4.09914 8.95338 3.04234 8.93414 2.02472C9.00997 1.90371 9.10164 1.84033 9.10391 1.75044C9.10504 1.68014 9.03147 1.62136 8.93867 1.54299V1.33094C8.93867 1.33094 9.09599 1.0048 9.22501 1.0048C9.35403 1.0048 9.44004 0.906839 9.44004 0.80888C9.55774 0.571475 9.31102 0.547273 9.31102 0.547273C9.03827 0.541511 8.72929 0.55534 8.46333 0.549578C8.22906 0.544968 8.03553 0.519614 7.80804 0.513852C7.70732 0.519614 7.60772 0.525376 7.50699 0.529986C7.26027 0.606048 7.31233 0.742038 7.40627 0.8181Z" fill="white"/>
<path d="M17.5412 9.66666C17.3544 9.6171 17.1892 9.70008 16.9991 9.66666C16.9436 9.65744 16.9323 9.52606 16.8802 9.54565C16.792 9.57676 16.784 9.71391 16.7105 9.77153C16.5645 9.88447 16.3596 9.96514 16.1966 10.0493C15.9114 10.1968 15.6195 10.2671 15.3648 10.4653C15.2822 10.5298 15.392 10.7338 15.2969 10.7776C15.0898 10.8733 14.7944 10.8364 14.6156 10.8122C14.4673 10.6382 14.7389 10.4261 14.7593 10.1968C14.8465 9.96169 15.0196 9.75079 15.0796 9.50762C15.1418 9.25523 15.0638 8.95329 15.109 8.69744C15.1441 8.49922 15.3173 8.34248 15.3478 8.14311C15.4157 7.69711 15.2697 7.23152 15.3614 6.79128C15.3942 6.63454 15.607 6.57462 15.6681 6.4271C15.7168 6.30955 15.6364 6.16895 15.6681 6.04564C15.6896 5.96151 15.7937 5.91887 15.8209 5.83704C15.8854 5.64804 15.9216 5.43945 15.9771 5.24699C16.0009 5.16516 16.0891 5.10639 16.0959 5.02111C16.1287 4.62927 16.045 4.23167 16.0959 3.84214C16.1152 3.69809 16.2193 3.60013 16.2555 3.46068C16.3223 3.20714 16.2725 2.92825 16.3574 2.68047C16.3834 2.60786 16.5339 2.6482 16.5622 2.57675C16.6188 2.43154 16.5249 2.25521 16.5792 2.10885C16.6177 2.00513 16.8157 1.98669 16.8542 1.88297C16.9176 1.71471 16.8519 1.51418 16.9131 1.34592C16.9481 1.24566 17.0568 1.18458 17.1043 1.09008C17.196 0.911449 17.3273 0.718989 17.3137 0.518462C17.3069 0.41935 17.1801 0.382472 17.0828 0.375557C16.4287 0.357118 15.77 0.382472 15.1136 0.385929C14.7401 0.388234 14.224 0.385929 13.898 0.388234C13.7045 0.390539 13.6525 0.360575 13.6491 0.55995C13.64 1.12926 13.7102 1.72163 13.6592 2.31745C13.6547 2.37161 13.537 2.35087 13.5234 2.40388C13.4974 2.5053 13.5529 2.61132 13.5574 2.71619C13.5642 2.84873 13.5246 2.98587 13.5574 3.11494C13.5732 3.17833 13.6298 3.20138 13.6932 3.20138C13.7566 3.20138 13.7803 3.15759 13.829 3.11494C13.9218 3.03543 14.1153 3.00316 14.1629 2.88906C14.2828 2.60095 14.2093 2.26789 14.3055 1.97056C14.37 1.77118 14.3711 1.62482 14.5352 1.4992C14.6575 1.40585 14.8227 1.40931 14.9947 1.42199C15.0751 1.45426 15.0751 1.58909 15.1566 1.61906C15.3173 1.67783 15.5606 1.48883 15.667 1.62367C15.6376 1.76657 15.6444 1.9913 15.5798 2.16071C15.5119 2.33704 15.3625 2.47879 15.2754 2.6459C15.1294 2.9294 15.0264 3.12877 14.9404 3.43763C14.8974 3.59437 14.9449 3.8433 14.9008 3.99888C14.8544 4.16253 14.6665 4.25472 14.6111 4.41491C14.5647 4.5509 14.6575 4.71225 14.6111 4.84824C14.5771 4.9485 14.4503 4.9462 14.4345 5.05107C14.4209 5.13635 14.516 5.19974 14.5431 5.28156C14.5647 5.34725 14.5488 5.42447 14.5262 5.49016C14.4515 5.70451 14.4107 5.63882 14.3281 5.84972C14.1957 6.18739 13.9693 6.74518 13.9241 7.10705C13.8652 7.57149 13.8845 8.07742 13.9478 8.54186C13.9648 8.66978 14.0655 8.76198 14.0882 8.88875C14.1244 9.09389 14.1119 9.30594 14.0882 9.51338C14.0825 9.56293 14.0395 9.58598 14.0327 9.63439C14.0044 9.82339 14.0599 10.0216 14.0157 10.206C14.0067 10.2452 13.9082 10.168 13.8969 10.206C13.8596 10.327 13.9501 10.4722 13.8969 10.5875C13.8584 10.6716 13.7453 10.6532 13.6887 10.7258C13.6502 10.7753 13.6377 10.8629 13.6717 10.9159C13.6955 10.9551 13.7249 10.8952 13.7407 10.939C13.7679 11.0104 13.7305 11.0992 13.6898 11.1648C13.6626 11.2086 13.5608 11.1602 13.554 11.2109C13.5393 11.4253 13.4985 11.6523 13.5563 11.9381C13.6276 12.0638 13.8437 12.0257 13.9818 11.9912C14.0814 11.9658 14.1583 11.8782 14.2591 11.8632C14.5454 11.8194 14.8736 11.8759 15.1566 11.8183C15.3139 11.786 15.3275 11.6558 15.4836 11.6189C15.6183 11.5878 15.8469 11.5947 15.9737 11.65C16.0201 11.6708 15.9918 11.7618 16.0416 11.7664C16.5328 11.7653 16.9877 11.7284 17.4789 11.7514C17.5514 11.7434 17.5921 11.6673 17.6 11.5936C17.6385 11.2432 17.6295 10.8871 17.6 10.5356C17.5944 10.4688 17.5355 10.4273 17.5197 10.3627C17.5004 10.2786 17.4869 10.183 17.5197 10.1023C17.5355 10.0631 17.617 10.1023 17.6385 10.0677C17.6759 10.0089 17.6453 9.93518 17.6283 9.86718C17.6091 9.79112 17.6113 9.68855 17.5367 9.66896L17.5412 9.66666Z" fill="white"/>
<path d="M3.77105 7.84001L3.77332 7.79046C3.77671 7.80429 3.77671 7.81927 3.77105 7.84001Z" fill="white"/>
<path d="M27.8787 3.49064C27.8345 3.12186 27.9024 2.74155 27.8379 2.37622C27.8142 2.24023 27.7123 2.13536 27.667 2.00743C27.6082 1.84263 27.5991 1.65824 27.5075 1.50727C27.443 1.40009 27.2981 1.32864 27.2109 1.2399C26.9144 0.937956 26.9812 1.06473 26.6077 0.988663C26.5308 0.972529 26.4832 0.882638 26.4074 0.859589C26.2738 0.819253 26.0622 0.758172 25.9422 0.727056C25.8392 0.70055 25.7759 0.777764 25.6729 0.751258C25.6287 0.739733 25.2496 0.629097 25.2281 0.618725C25.1059 0.55995 25.0674 0.459686 24.9497 0.391691C24.8637 0.340983 24.5445 0.171572 24.4676 0.147371C24.3668 0.115102 24.3034 0.16581 24.205 0.126627C24.1642 0.110492 24.0839 0.0355826 24.0409 0.0286679C23.9141 0.0079237 23.7681 -0.00360086 23.6346 0.00100897C23.5305 0.00446633 23.4377 0.0113811 23.4942 0.0955103C23.5882 0.234958 23.6708 0.309867 23.7942 0.403216C23.8915 0.475821 24.0081 0.606048 24.1122 0.685568C24.231 0.775459 24.334 0.819253 24.3748 0.959852C24.4313 1.15346 24.4042 1.37935 24.3849 1.60523C24.3827 1.63634 24.3193 1.70895 24.3182 1.74122C24.3125 2.0132 24.3351 2.12038 24.3453 2.3912C24.3476 2.45113 24.2299 2.44883 24.2254 2.50875C24.1982 2.8614 24.2186 3.18179 24.2231 3.53559C24.2276 3.86865 24.214 4.23513 24.2254 4.56704C24.2276 4.62351 24.2729 4.66154 24.2729 4.71801C24.2729 4.86898 24.2899 4.97962 24.291 5.10985C24.291 5.25736 24.2763 5.42331 24.291 5.59272C24.2967 5.65035 24.3419 5.66187 24.3521 5.71834C24.3714 6.02259 24.3374 6.33606 24.3657 6.64376C24.3702 6.68756 24.4777 6.74172 24.4845 6.78552C24.5219 7.00909 24.4596 7.26724 24.5219 7.48506C24.557 7.60722 24.6475 7.73629 24.7165 7.86537C24.8003 8.0221 24.8806 8.13389 24.892 8.28716C24.9146 8.59602 24.8444 8.66748 24.8331 8.96827C24.8195 9.32668 24.7131 9.70353 24.7245 10.0758C24.729 10.2152 24.8478 10.3812 24.9123 10.5033C24.9497 10.5736 24.9565 10.7154 25.0051 10.811C25.0504 10.8998 25.1398 10.8883 25.1127 10.9586C25.0923 11.0116 25.0368 11.068 24.9734 11.0969C24.8512 11.1522 24.6962 11.1602 24.686 11.2305C24.6577 11.34 24.7358 11.3999 24.7833 11.514C24.8195 11.6016 24.8501 11.7422 24.8297 11.8771C24.8161 11.9693 24.7584 12.0626 24.7471 12.1214C24.7165 12.2735 24.643 12.3496 24.5671 12.4268C24.5151 12.4798 24.437 12.4994 24.4687 12.6008C24.4925 12.6792 24.5604 12.64 24.6464 12.6423C24.7901 12.6458 24.9452 12.6123 25.0776 12.5858C25.1432 12.5731 25.1206 12.5236 25.1828 12.4971C25.2677 12.4602 25.3775 12.4568 25.4612 12.4971C25.5167 12.5236 25.502 12.5397 25.5484 12.5789C25.5812 12.6066 25.6423 12.6043 25.6785 12.5789C25.7397 12.534 25.6944 12.534 25.7623 12.4982C25.8743 12.4395 26.0113 12.4544 26.1335 12.4233C26.327 12.3726 26.507 12.3496 26.6756 12.2401C26.8488 12.1271 27.0287 11.9301 27.1034 11.7342C27.2166 11.438 27.2347 11.0531 27.2528 10.7903C27.263 10.7419 27.3343 10.6854 27.3388 10.637C27.366 10.3489 27.3298 10.055 27.3717 9.76807C27.3864 9.66435 27.4724 9.60788 27.486 9.50416C27.5244 9.20452 27.4939 8.93369 27.4803 8.63175C27.4622 8.20304 27.4531 7.87113 27.4656 7.44242C27.5052 7.21769 27.4837 6.93418 27.5686 6.72674C27.6014 6.64837 27.7021 6.62187 27.7463 6.54811C27.8062 6.44785 27.8708 6.32569 27.8787 6.20814C27.8957 5.96266 27.8244 5.71489 27.8594 5.47172C27.8809 5.32766 28.0009 5.26773 28.019 5.12252C28.0711 4.6915 28.0632 4.2651 28.0179 3.83292C28.0054 3.71998 27.8923 3.60128 27.8787 3.48834V3.49064ZM26.9189 5.40603C26.8431 5.54663 26.8126 5.65496 26.8001 5.77481C26.7639 6.10902 26.6711 6.05716 26.576 6.30955C26.55 6.3787 26.5557 6.46398 26.5534 6.62648L26.5285 8.37245C26.5228 8.74469 26.4549 8.92102 26.3067 9.26445C26.2195 9.4281 26.1742 9.53412 26.1742 9.72082C26.1742 9.90752 26.1301 10.0435 26.0441 10.244C25.992 10.3662 25.9388 10.4895 25.8868 10.6117C25.8245 10.7569 25.7679 10.8087 25.7261 10.7891C25.6842 10.7696 25.6593 10.6785 25.6593 10.5379L25.6706 8.40702L25.6944 6.14129C25.6853 5.9788 25.691 5.94307 25.5869 5.82322C25.5767 5.5789 25.5303 5.46826 25.4544 5.23546C25.3582 5.05222 25.3696 4.91854 25.3673 4.70764L25.3492 3.13338C25.3458 2.81185 25.4171 2.92133 25.7148 2.9052C25.9015 2.89483 25.9377 2.88445 26.1029 2.9755C26.2738 3.06885 26.3101 3.13108 26.4153 3.30049L26.5772 3.45953C26.7978 3.67619 26.9008 3.98159 26.9914 4.2674C27.0061 4.57856 27.0717 5.12252 26.9189 5.40487V5.40603Z" fill="white"/>
<path d="M28.3608 0.50348C28.38 0.476973 28.3891 0.447009 28.3891 0.411283C28.3891 0.35827 28.3687 0.317934 28.328 0.290275C28.2872 0.262616 28.2284 0.248787 28.1514 0.248787H27.9296V0.799661H28.1005V0.588761H28.1175L28.2137 0.799661H28.3993L28.2805 0.558798C28.3155 0.546121 28.3416 0.527681 28.3608 0.502327V0.50348ZM28.1944 0.471211C28.1809 0.482735 28.1616 0.488498 28.1367 0.488498H28.1005V0.357118H28.1265C28.1571 0.357118 28.1797 0.361728 28.1933 0.3721C28.2069 0.382472 28.2148 0.398606 28.2148 0.420503C28.2148 0.4424 28.208 0.458534 28.1956 0.470058L28.1944 0.471211Z" fill="white"/>
<path d="M28.6098 0.339831C28.5849 0.277598 28.5487 0.22228 28.5034 0.17503C28.457 0.127779 28.4016 0.0897481 28.3404 0.064394C28.2793 0.03904 28.2148 0.026363 28.1458 0.026363C28.0801 0.026363 28.0156 0.03904 27.9545 0.0632416C27.8945 0.0874432 27.8413 0.124322 27.7961 0.171572C27.7485 0.219976 27.7112 0.276446 27.6851 0.339831C27.6591 0.402064 27.6467 0.467754 27.6467 0.535748C27.6467 0.602591 27.6591 0.668281 27.6851 0.729361C27.7112 0.791594 27.7485 0.846911 27.7949 0.894162C27.8413 0.942565 27.8968 0.980596 27.9568 1.0071C28.0779 1.05896 28.2159 1.05896 28.337 1.0071C28.3993 0.980596 28.4547 0.942565 28.5034 0.894162C28.5498 0.848064 28.586 0.793899 28.6109 0.732818C28.6358 0.671738 28.6471 0.607201 28.6471 0.536901C28.6471 0.466601 28.6347 0.403216 28.6098 0.339831ZM28.5159 0.69133C28.4966 0.739733 28.4683 0.782374 28.431 0.820405C28.3936 0.858436 28.3484 0.889552 28.2997 0.910297C28.251 0.931041 28.2001 0.941413 28.148 0.941413C28.096 0.941413 28.0439 0.931041 27.9964 0.910297C27.9488 0.889552 27.9058 0.859589 27.8674 0.821557C27.83 0.783526 27.8006 0.739733 27.7802 0.690177C27.7598 0.641774 27.7497 0.589914 27.7497 0.535748C27.7497 0.482735 27.7598 0.429723 27.7802 0.380167C27.8006 0.330611 27.83 0.284513 27.8685 0.246482C27.9047 0.208451 27.9477 0.17964 27.9952 0.158895C28.0428 0.139304 28.0937 0.128932 28.148 0.128932C28.2001 0.128932 28.2522 0.139304 28.3008 0.158895C28.3495 0.17964 28.3936 0.209603 28.4298 0.247635C28.4672 0.284513 28.4955 0.329459 28.5159 0.377862C28.5362 0.427418 28.5453 0.479278 28.5453 0.533444C28.5453 0.586456 28.5362 0.639469 28.5159 0.689025V0.69133Z" fill="white"/>
<path d="M24.1903 9.49494C24.1303 9.42464 23.9537 9.49609 23.93 9.4062C23.8971 9.28289 24.0726 9.18032 24.0748 9.0524C24.0273 8.70781 23.9832 8.40011 23.9775 8.06128C23.9707 7.66138 23.887 7.86306 23.7568 7.70633C23.6776 7.61183 23.6538 7.5277 23.6414 7.40439C23.6052 7.04251 23.6561 6.64261 23.6018 6.2842C23.578 6.12401 23.5033 5.96497 23.3992 5.84281C23.3618 5.79786 23.2917 5.8647 23.2656 5.81169C23.2226 5.72295 23.355 5.66302 23.3052 5.5789C23.1875 5.38413 22.9397 5.23431 22.7529 5.10754C22.6964 5.06951 22.5979 5.15594 22.5504 5.10754C22.5028 5.05914 22.504 4.90932 22.5504 4.85976C22.8842 4.81021 23.0551 4.65117 23.2181 4.45871C23.4388 4.19941 23.5474 3.91014 23.6583 3.5863C23.7093 3.43648 23.6436 3.26246 23.6606 3.10457C23.6923 2.81415 23.8417 2.54909 23.7919 2.26097C23.7195 1.84148 23.5169 1.46578 23.2826 1.11198C23.1524 0.916059 22.9521 0.742038 22.7416 0.640622C22.5662 0.556493 22.4202 0.626792 22.2346 0.571475C22.0196 0.506937 21.8464 0.384777 21.6268 0.338678C21.4559 0.302952 21.276 0.375557 21.1062 0.335221C20.9998 0.309867 20.9829 0.188859 20.8742 0.171572C20.7995 0.160048 20.7237 0.269531 20.649 0.276446C20.1306 0.321392 19.704 0.218823 19.1879 0.28797C19.1109 0.298343 19.1324 0.385929 19.1969 0.430875C19.292 0.497717 19.438 0.465449 19.5444 0.511547C19.7357 0.595676 19.8828 0.709769 20.0243 0.865351C20.142 0.994426 20.1895 1.13733 20.2959 1.33671C20.34 1.41853 20.4657 1.2618 20.5562 1.24797C20.6705 1.23183 20.7497 1.22837 20.8222 1.32057C20.8867 1.40355 20.7531 1.51303 20.6762 1.58448C20.5211 1.72854 20.4159 1.8046 20.2789 1.90026C20.185 1.96595 20.0197 2.02472 19.9496 2.15149C19.7956 2.435 19.9779 2.75653 20.0378 3.07461C20.0593 3.19101 20.0842 3.30395 20.1103 3.41919C20.194 3.79374 20.1657 4.1049 20.2167 4.48521C20.2336 4.60853 20.3185 4.71571 20.3321 4.83902C20.3479 4.98538 20.3219 5.09371 20.3434 5.23892C20.3525 5.30115 20.4023 5.36684 20.4181 5.42792C20.4905 5.6976 20.5539 6.03527 20.563 6.31416C20.5924 7.22691 20.5392 8.12006 20.5845 9.03281C20.589 9.11578 20.7112 9.14805 20.7282 9.22987C20.7542 9.35549 20.6716 9.5007 20.6298 9.62286C20.4589 10.1219 20.2574 10.4953 20.1522 10.9205C20.1069 11.1015 20.2438 11.1752 20.4057 11.2812C20.5675 11.3873 20.7542 11.5267 20.9297 11.6742C21.2273 11.9232 21.4299 12.3761 21.6234 12.8232C21.723 12.7149 21.6529 12.2124 21.7083 11.9105C21.7208 11.846 21.7887 11.7987 21.7955 11.7342C21.8181 11.5002 21.8238 11.2617 21.7955 11.0277C21.7841 10.9401 21.7015 10.8767 21.68 10.7926C21.663 10.7258 21.6664 10.6532 21.68 10.5863C21.6959 10.5045 21.7593 10.4342 21.7672 10.3512C21.7887 10.1069 21.8034 9.85796 21.7672 9.61479C21.7536 9.52375 21.6155 9.47189 21.6223 9.37969C21.628 9.30363 21.7898 9.30939 21.7955 9.23218C21.8113 9.01321 21.7366 8.80231 21.7106 8.5845C21.6506 8.09471 21.6155 7.60261 21.5657 7.11166C21.5476 6.93534 21.4786 6.7567 21.508 6.58153C21.5985 6.34297 21.6812 6.0975 21.7683 5.90389C21.8113 5.84742 21.8668 5.95805 21.9098 6.01452C22.0512 6.19776 22.238 6.4248 22.2787 6.65414C22.3285 6.93534 22.1791 7.18311 22.2108 7.46662C22.2199 7.54959 22.3455 7.53461 22.3738 7.61183C22.5119 7.98407 22.6239 8.36899 22.6918 8.76082C22.7688 9.20683 22.7937 9.66204 22.8073 10.115C22.8129 10.312 22.805 10.5149 22.7495 10.7039C22.6703 10.9735 22.5062 11.189 22.4247 11.4495C22.3387 11.7226 22.3116 11.8033 22.5956 11.8033C22.7077 11.8033 22.839 11.8079 22.925 11.8517C23.157 11.9693 23.2532 12.2424 23.4727 12.3818C23.5203 12.4118 23.5825 12.4533 23.6482 12.4913C23.9605 12.67 23.9945 12.5466 24.0601 12.2677C24.1461 11.899 24.1676 11.5671 24.2231 11.204C24.2514 11.0196 24.2457 10.8306 24.2537 10.6451C24.265 10.38 24.2842 10.115 24.2706 9.8499C24.265 9.72543 24.265 9.59059 24.1857 9.49609L24.1903 9.49494ZM22.4858 3.75225C22.4666 3.87902 22.3761 3.97813 22.3229 4.08762C22.2866 4.16137 22.3014 4.33309 22.2074 4.4322C22.0705 4.57741 21.8837 4.72032 21.7468 4.72032C21.4627 4.72032 21.4514 4.68344 21.4322 4.47254C21.4175 4.30774 21.4525 3.92743 21.4525 3.7292C21.4525 3.53098 21.4344 3.2106 21.4333 2.96167C21.4333 2.72772 21.4491 2.51912 21.448 2.28748C21.448 2.1077 21.4299 1.921 21.4288 1.74813C21.4288 1.53493 21.4254 1.51303 21.6664 1.5672C21.7989 1.59716 21.8815 1.67092 21.9935 1.83687C22.0546 1.92792 22.1972 2.04777 22.3161 2.1803C22.4904 2.37507 22.6409 2.59173 22.6409 2.73809C22.6409 2.88445 22.6013 3.30856 22.5594 3.34889C22.453 3.45261 22.5107 3.58745 22.487 3.74995L22.4858 3.75225Z" fill="white"/>
<path d="M20.065 6.89154C20.0616 6.8005 19.9937 6.62187 19.9767 6.49625C19.9496 6.29226 19.9269 6.09519 19.9224 5.88314C19.9167 5.65035 19.9586 5.43138 19.919 5.20319C19.8952 5.06144 19.747 4.92084 19.7153 4.78024C19.6893 4.66385 19.7843 4.53823 19.7526 4.42183C19.7345 4.35614 19.6587 4.37227 19.6361 4.30889C19.584 4.16022 19.5252 4.01847 19.4923 3.86289C19.4482 3.65084 19.4346 3.4238 19.3769 3.21521C19.3124 2.98011 19.2015 2.75423 19.1245 2.52258C19.0623 2.33588 19.0317 2.14342 18.9876 1.95212C18.9559 1.81152 19.0125 1.61906 18.9593 1.48422C18.8585 1.22722 18.6763 1.07625 18.5711 0.820405C18.5111 0.675196 18.5586 0.497717 18.5066 0.349051C18.4794 0.272989 18.3832 0.217671 18.3051 0.221128C18.1976 0.225738 18.0912 0.269531 18.0448 0.36749C17.9803 0.50348 18.0878 0.68211 18.0267 0.820405C17.9509 0.989816 17.7506 0.986359 17.6736 1.15577C17.6193 1.27562 17.7109 1.47846 17.6679 1.60292C17.6114 1.77003 17.5038 1.90141 17.4235 2.05814C17.3692 2.16532 17.3454 2.30016 17.2877 2.40618C17.2424 2.49031 17.1722 2.55139 17.1564 2.64589C17.1394 2.75307 17.2152 2.83951 17.1835 2.94323C17.1609 3.01929 17.1179 3.05386 17.0692 3.10227C16.9889 3.18179 16.9232 3.327 16.8904 3.45492C16.8282 3.69809 16.8814 3.99657 16.8214 4.24089C16.7965 4.34461 16.6312 4.36536 16.5996 4.46677C16.552 4.61659 16.6426 4.78716 16.5996 4.93813C16.5588 5.08219 16.3981 5.19282 16.3585 5.33688C16.2962 5.56737 16.2985 5.84511 16.3404 6.08021C16.354 6.15743 16.4932 6.11594 16.5068 6.19315C16.5181 6.25654 16.3596 6.22542 16.3404 6.28765C16.2917 6.44324 16.3687 6.62072 16.3223 6.77745C16.2849 6.90307 16.2102 6.87195 16.1853 6.99987C16.1672 7.09322 16.2068 7.26609 16.2114 7.36174C16.2193 7.54498 16.1797 7.68097 16.1751 7.86421C16.1729 7.94143 16.234 8.0682 16.1933 8.13389C16.1231 8.24914 15.9307 8.24453 15.8605 8.35977C15.7949 8.46695 15.8809 8.66287 15.8232 8.77465C15.7439 8.92793 15.5221 8.91871 15.5085 9.09158C15.495 9.26099 15.5063 9.53528 15.6749 9.54104C15.8209 9.54565 15.9567 9.45691 16.0891 9.38891C16.2895 9.2875 16.483 9.18608 16.6992 9.13883C16.8983 9.09619 17.11 9.16995 17.3171 9.16073C17.3861 9.15727 17.4506 9.16073 17.5095 9.125C17.6068 9.06853 17.634 9.02704 17.6645 8.91064C17.7087 8.73662 17.4099 8.68937 17.3341 8.52803C17.2616 8.37475 17.3624 8.19958 17.3431 8.03017C17.3363 7.97255 17.2696 7.9276 17.2696 7.86998C17.2696 7.81235 17.3295 7.71209 17.3805 7.73744C17.7291 7.91031 18.1818 8.12467 18.4624 8.35862C18.5971 8.47041 18.6446 8.54877 18.6413 8.72971C18.639 8.85072 18.6107 8.99362 18.562 9.11693C18.4953 9.28289 18.4262 9.52145 18.3187 9.66666C18.1625 9.87986 18.0086 10.0504 17.9916 10.312C17.9746 10.5829 18.3662 10.6797 18.4896 10.9205C18.5575 11.0542 18.4919 11.3181 18.5292 11.4633C18.605 11.7641 18.7307 11.9497 18.7782 12.2562C18.8189 12.5178 18.7465 12.6999 18.7827 12.9627C18.7918 13.0249 18.9389 12.9961 18.9955 12.9707C19.0747 12.9339 19.0928 12.9465 19.1189 12.8613C19.1653 12.7114 19.1053 12.5443 19.137 12.3899C19.1494 12.3288 19.2298 12.2989 19.2479 12.2389C19.2807 12.1237 19.2264 11.9969 19.2569 11.8805C19.2852 11.7733 19.3588 11.6143 19.4029 11.5117C19.4686 11.3619 19.5342 11.2697 19.5433 11.1084C19.5534 10.9217 19.4935 10.7707 19.5433 10.6197C19.5659 10.5517 19.6961 10.4999 19.7243 10.4353C19.7719 10.3305 19.773 10.2083 19.7979 10.0965C19.8466 9.88216 19.91 9.76922 19.9846 9.56409C20.005 9.50992 20.0718 9.47996 20.0752 9.42233C20.099 8.92678 20.099 8.39665 20.0944 7.89994C20.091 7.55997 20.0763 7.22691 20.065 6.88693V6.89154ZM18.8778 6.4951C18.8778 6.76016 18.8699 7.02407 18.8563 7.28914C18.8529 7.36405 18.6571 7.36981 18.6028 7.32717C18.4975 7.24535 18.4307 7.14969 18.2927 7.11627C18.2349 7.10244 18.2383 7.00909 18.1829 6.99065C18.0618 6.94916 17.909 6.93879 17.7822 6.93879C17.6555 6.93879 17.5808 6.96876 17.4982 6.95838C17.4835 6.95608 17.4982 6.92381 17.4982 6.90768C17.4959 6.74172 17.4925 6.57807 17.4925 6.41443C17.4925 6.27037 17.4959 6.12631 17.5072 5.97995C17.514 5.88545 17.6 5.81284 17.6113 5.71834C17.6295 5.56161 17.5355 5.37491 17.5785 5.22394C17.5955 5.16286 17.7483 5.22394 17.7822 5.17323C17.7936 5.15594 17.8162 5.05914 17.8547 4.97501C17.8773 4.92545 17.926 4.88051 17.926 4.86091C17.926 4.83326 17.9237 4.63388 17.9452 4.46217C17.9577 4.3619 17.9724 4.27777 17.9871 4.27777C18.0018 4.27777 18.0165 4.3596 18.0686 4.42874C18.1286 4.50826 18.1489 4.58663 18.201 4.67076C18.2316 4.72032 18.2655 4.77794 18.3164 4.79868C18.3809 4.82404 18.459 4.78831 18.5235 4.81482C18.5722 4.83441 18.5835 4.91162 18.6277 4.94274C18.6571 4.96348 18.725 4.9243 18.7318 4.96233C18.7624 5.13289 18.7363 5.36223 18.7623 5.53395C18.7691 5.57544 18.8585 5.55585 18.8608 5.59733C18.8744 5.89697 18.8812 6.19661 18.8801 6.49625L18.8778 6.4951Z" fill="white"/>
</svg>
