<svg width="21" height="17" viewBox="0 0 21 17" fill="none" xmlns="http://www.w3.org/2000/svg">
<path d="M8.34195 17C8.32486 17 8.30777 17 8.28898 16.9983C8.2548 16.9965 8.22404 16.993 8.19328 16.9878C4.09697 16.9529 1.75061 15.1664 1.75061 12.0702C1.75061 8.25975 4.20976 6.22007 9.25794 5.86731C8.65469 5.58965 7.98137 5.35739 7.40546 5.36438C6.60226 5.36438 5.63842 5.80794 4.86257 6.16593L4.70193 6.24102C3.69024 6.70554 2.65121 6.73523 1.76428 6.70554C1.39515 6.69331 0.697906 6.49249 0.21257 6.19387C0.0587666 6.09957 -0.023262 5.9197 0.00578968 5.73809C0.0348414 5.55822 0.169847 5.41327 0.345867 5.37486C1.88561 5.03607 2.42393 4.36724 3.16902 3.4417C3.88335 2.55632 4.77029 1.4544 6.81588 0.488697C7.0124 0.397889 7.2414 0.462502 7.36273 0.644118C7.48236 0.825733 7.45673 1.06847 7.2995 1.2204C7.07222 1.44043 6.85347 1.67793 6.65695 1.91193C8.82045 0.911303 10.555 0.541086 12.2434 0.181347C12.5066 0.125466 12.7681 0.0678378 13.0313 0.0102098C13.2517 -0.0386867 13.4722 0.0922859 13.5405 0.31232C13.6089 0.530608 13.5029 0.768106 13.2961 0.858913C11.7496 1.52949 10.5584 2.12498 9.41174 2.81652C10.0458 2.74143 10.7413 2.68205 11.3753 2.68205C13.103 2.68205 14.26 3.53774 15.2785 4.29215C16.0561 4.86843 16.7277 5.36438 17.5001 5.36438C18.17 5.36438 19.5047 4.84223 20.0755 4.61871C20.489 4.45805 20.6121 4.40915 20.8103 4.54885C20.9282 4.63093 21 4.77063 21 4.91732C21 5.02734 20.9607 5.13386 20.8889 5.21594L20.7881 5.33294C20.2088 6.01051 18.8553 7.59965 15.7502 7.59965C15.0444 7.59965 13.8259 7.315 12.751 7.06528C12.0008 6.8889 11.2232 6.70903 10.9361 6.70554C10.9241 6.70554 10.9122 6.70554 10.8985 6.70554C10.2713 6.71252 7.9113 7.01638 6.46042 8.48677C5.65722 9.30055 5.2505 10.3553 5.2505 11.6231C5.2505 15.5593 8.03947 16.0518 8.34024 16.0937C12.2366 16.0832 12.6878 13.5388 12.6878 11.6231C12.6878 10.984 12.4229 10.3466 11.9786 9.91699C11.6026 9.55376 11.4317 9.38786 10.5003 9.38786C10.4832 9.38786 8.75039 9.42453 8.75039 10.729C8.75039 10.8495 8.83071 10.9421 9.02552 11.1412C9.27845 11.3961 9.62536 11.7471 9.62536 12.3618C9.62536 13.2158 8.94862 13.8584 8.05143 13.8584C7.11836 13.8584 6.12718 13.111 6.12718 11.7262C6.12718 11.314 6.2075 10.8862 6.34934 10.5509C6.5527 10.0689 7.45502 8.49375 10.5003 8.49375C12.71 8.49375 13.7029 8.86397 14.4292 9.13465C14.7146 9.24117 14.9401 9.32499 15.1725 9.35643C16.0356 9.46819 16.9669 9.29007 17.7889 9.13465C18.3341 9.02987 18.804 8.94081 19.2056 8.94081C19.4124 8.94081 19.5918 9.08924 19.6346 9.29705C19.6756 9.50486 19.5696 9.71267 19.3799 9.79824C18.9749 9.97637 18.6092 10.4671 18.2213 10.9875C17.63 11.782 16.9054 12.7512 15.716 12.9346C15.5964 13.7082 15.1691 14.4574 14.7385 15.0302C14.9077 14.9848 15.07 14.9359 15.2255 14.8887C15.3691 14.8433 15.5075 14.8032 15.6391 14.7665C15.8407 14.7123 16.0544 14.8136 16.1449 15.0075C16.2355 15.2013 16.1774 15.4336 16.0082 15.561C15.3007 16.0884 13.385 16.9686 8.47696 16.9878C8.43765 16.9965 8.39322 17 8.34195 17Z" fill="white"/>
</svg>
