<svg width="21" height="17" viewBox="0 0 21 17" fill="none" xmlns="http://www.w3.org/2000/svg">
<path d="M7.86061 0.000677836V15.8605L11.2855 17V3.69718C11.2855 3.0715 11.5526 2.65528 11.9831 2.79967C12.537 2.96575 12.6466 3.53788 12.6466 4.16289V9.47276C14.7833 10.5499 16.4639 9.46938 16.4639 6.62361C16.4639 3.69718 15.4795 2.397 12.5816 1.35577C11.4364 0.949039 9.3168 0.282 7.86454 0L7.86061 0.000677836ZM11.9352 14.681L17.445 12.6222C18.0697 12.3897 18.1662 12.0582 17.6602 11.8847C17.1477 11.7118 16.2276 11.7572 15.595 11.9938L11.9175 13.3496V11.1919L12.1255 11.118C12.1255 11.118 13.1781 10.7377 14.675 10.5601C16.1587 10.3981 17.9877 10.5879 19.4334 11.1566C21.0503 11.701 21.221 12.488 20.8108 13.0323C20.4039 13.5719 19.3927 13.9678 19.3927 13.9678L11.9175 16.7743V14.6979L11.9352 14.681ZM1.58238 14.4661C-0.0824988 13.9719 -0.355494 12.9584 0.39918 12.3646C1.10004 11.8386 2.28586 11.4156 2.28586 11.4156L7.20043 9.59682V11.6867L3.68037 13.0181C3.06154 13.2621 2.95916 13.5902 3.47234 13.7631C3.98486 13.94 4.9036 13.9014 5.51981 13.6573L7.21487 13.0181V14.8925C7.1125 14.9175 6.9924 14.9311 6.87297 14.9596C5.17791 15.2572 3.37981 15.1365 1.59222 14.5257L1.58238 14.4661Z" fill="white"/>
</svg>
