<svg width="23" height="25" viewBox="0 0 23 25" fill="none" xmlns="http://www.w3.org/2000/svg">
<path d="M11.4813 0.977295C5.43133 0.977295 0.468814 5.64311 0 11.5735L6.1738 14.1279C6.69878 13.7714 7.32891 13.5618 8.01161 13.5618C8.07138 13.5618 8.13187 13.5654 8.19164 13.5654L10.9376 9.5895V9.53333C10.9376 7.13669 12.8841 5.19014 15.2807 5.19014C17.6774 5.19014 19.6275 7.14029 19.6275 9.53693C19.6275 11.9336 17.6774 13.8801 15.2807 13.8801H15.1835L11.2674 16.6743C11.2674 16.7269 11.271 16.7758 11.271 16.8284C11.271 18.6288 9.81557 20.0878 8.01521 20.0878C6.44745 20.0878 5.11951 18.9622 4.81561 17.47L0.39752 15.6394C1.76651 20.4781 6.20404 24.0226 11.4813 24.0226C17.8423 24.0226 23 18.8657 23 12.5003C23 6.13497 17.843 0.978015 11.4813 0.978015V0.977295ZM7.21657 18.4631L5.8022 17.8776C6.05353 18.399 6.4885 18.834 7.06606 19.0781C8.31119 19.5959 9.74787 19.0032 10.2657 17.7581C10.517 17.1503 10.517 16.4906 10.2693 15.8864C10.0215 15.2786 9.54911 14.8098 8.94491 14.5585C8.34863 14.3072 7.70698 14.3187 7.14455 14.5283L8.60356 15.1325C9.52247 15.5185 9.95744 16.5727 9.57504 17.4916C9.19264 18.4105 8.13475 18.8455 7.21585 18.4631H7.21657ZM18.1764 9.52901C18.1764 7.93461 16.8787 6.63331 15.2843 6.63331C13.6827 6.63331 12.3886 7.93461 12.3886 9.52901C12.3886 11.127 13.6827 12.4247 15.2843 12.4247C16.8787 12.4247 18.1764 11.127 18.1764 9.52901ZM13.1167 9.52541C13.1167 8.32133 14.0882 7.34985 15.2887 7.34985C16.4891 7.34985 17.4678 8.32133 17.4678 9.52541C17.4678 10.7259 16.4891 11.701 15.2887 11.701C14.0882 11.701 13.1167 10.7259 13.1167 9.52541Z" fill="white"/>
</svg>
