<svg width="19" height="19" viewBox="0 0 19 19" fill="none" xmlns="http://www.w3.org/2000/svg">
<path d="M3.24743 16.6512C4.91706 18.1142 7.10682 19.0001 9.50004 19.0001C11.8956 19.0001 14.083 18.1142 15.7558 16.6512C17.2418 15.1375 12.339 9.75654 9.50004 7.6127C6.66428 9.75654 1.7583 15.1375 3.24743 16.6512ZM12.0825 5.2464C14.0616 7.59053 18.0073 13.4109 16.8927 15.4684C18.21 13.8384 19.0001 11.765 19.0001 9.50321C19.0001 6.85903 17.9195 4.4666 16.1738 2.74551C16.1738 2.74551 16.1524 2.7281 16.1089 2.71226C16.059 2.69484 15.9886 2.67664 15.8864 2.67664C15.4178 2.67664 14.315 3.02022 12.0825 5.2464ZM2.89276 2.71226C2.84764 2.7281 2.82785 2.74472 2.82468 2.74551C1.08063 4.4666 0 6.85903 0 9.50321C0 11.7626 0.790087 13.836 2.10663 15.4669C0.997504 13.4046 4.94002 7.58895 6.91999 5.2464C4.68748 3.01943 3.58231 2.67743 3.11522 2.67743C3.01151 2.67743 2.93868 2.69405 2.89276 2.71384V2.71226ZM9.50004 2.81122C9.50004 2.81122 7.16857 1.44717 5.34773 1.38226C4.63285 1.35613 4.19664 1.6158 4.1436 1.65063C5.84173 0.511419 7.64674 0 9.48737 0H9.50004C11.3478 0 13.1457 0.511419 14.8565 1.65063C14.8026 1.61422 14.3696 1.35613 13.6531 1.38226C11.8323 1.44717 9.50004 2.80647 9.50004 2.80647V2.81122Z" fill="white"/>
</svg>
