<svg width="34" height="35" viewBox="0 0 34 35" fill="none" xmlns="http://www.w3.org/2000/svg">
<path d="M17 0.5C13.6377 0.5 10.3509 1.49703 7.55531 3.36502C4.75968 5.233 2.58074 7.88804 1.29406 10.9944C0.00736582 14.1007 -0.329291 17.5189 0.326658 20.8165C0.982606 24.1142 2.6017 27.1433 4.97919 29.5208C7.35668 31.8983 10.3858 33.5174 13.6835 34.1733C16.9811 34.8293 20.3993 34.4926 23.5056 33.2059C26.612 31.9193 29.267 29.7403 31.135 26.9447C33.003 24.1491 34 20.8623 34 17.5C34 15.2675 33.5603 13.0569 32.706 10.9944C31.8516 8.93184 30.5994 7.05778 29.0208 5.47918C27.4422 3.90059 25.5682 2.64838 23.5056 1.79405C21.4431 0.939718 19.2325 0.5 17 0.5ZM17 31.1C14.3102 31.1 11.6808 30.3024 9.44425 28.808C7.20774 27.3136 5.4646 25.1896 4.43525 22.7045C3.40589 20.2194 3.13657 17.4849 3.66133 14.8468C4.18609 12.2086 5.48136 9.78534 7.38335 7.88335C9.28535 5.98135 11.7086 4.68608 14.3468 4.16132C16.9849 3.63656 19.7194 3.90589 22.2045 4.93524C24.6896 5.96459 26.8136 7.70773 28.308 9.94424C29.8024 12.1808 30.6 14.8102 30.6 17.5C30.6 21.1069 29.1671 24.5662 26.6167 27.1166C24.0662 29.6671 20.6069 31.1 17 31.1Z" fill="#10FF08"/>
<path d="M21.59 11.3633L15.164 19.8633L12.393 16.2763C12.1157 15.9201 11.7083 15.6887 11.2604 15.6329C10.8124 15.5771 10.3607 15.7015 10.0045 15.9788C9.64832 16.2561 9.41687 16.6635 9.36108 17.1114C9.30528 17.5594 9.42972 18.0111 9.707 18.3673L13.838 23.6543C13.9981 23.8569 14.2022 24.0204 14.4349 24.1323C14.6676 24.2443 14.9228 24.3017 15.181 24.3003C15.4406 24.2997 15.6967 24.2396 15.9294 24.1247C16.1622 24.0098 16.3656 23.843 16.524 23.6373L24.293 13.4373C24.568 13.0766 24.6885 12.6214 24.6279 12.1719C24.5674 11.7224 24.3307 11.3153 23.97 11.0403C23.6093 10.7653 23.1541 10.6448 22.7046 10.7054C22.2551 10.766 21.848 11.0026 21.573 11.3633H21.59Z" fill="#10FF08"/>
</svg>
