<svg width="16" height="15" viewBox="0 0 16 15" fill="none" xmlns="http://www.w3.org/2000/svg">
<path d="M8 14.6667C7.44 14.6667 6.89333 14.48 6.44 14.1067C4.04 12.12 0 8.28 0 4.81333C0 2.16 1.94667 0 4.33333 0C5.88 0 7.22667 0.893332 8 2.25333C8.77333 0.906666 10.12 0 11.6667 0C14.0533 0 16 2.16 16 4.81333C16 8.28 11.96 12.12 9.56 14.1067C9.10667 14.48 8.54667 14.6667 8 14.6667ZM4.33333 1.33333C2.68 1.33333 1.33333 2.89333 1.33333 4.81333C1.33333 7.84 5.49333 11.6 7.29333 13.08C7.70667 13.4267 8.29333 13.4267 8.72 13.08C10.5067 11.6 14.6667 7.84 14.6667 4.81333C14.6667 2.89333 13.32 1.33333 11.6667 1.33333C10.0133 1.33333 8.66667 2.89333 8.66667 4.81333C8.66667 5.18667 8.37333 5.48 8 5.48C7.62667 5.48 7.33333 5.18667 7.33333 4.81333C7.33333 2.89333 5.98667 1.33333 4.33333 1.33333Z" fill="white"/>
</svg>
