<svg width="16" height="15" viewBox="0 0 16 15" fill="none" xmlns="http://www.w3.org/2000/svg">
<path d="M8 14.6667C7.44 14.6667 6.89333 14.48 6.44 14.1067C4.04 12.12 0 8.28 0 4.81333C0 2.16 1.94667 0 4.33333 0C5.88 0 7.22667 0.893332 8 2.25333C8.77333 0.906666 10.12 0 11.6667 0C14.0533 0 16 2.16 16 4.81333C16 8.28 11.96 12.12 9.56 14.1067C9.10667 14.48 8.54667 14.6667 8 14.6667Z" fill="white"/>
<path d="M8 14.6667C7.44 14.6667 6.89333 14.48 6.44 14.1067C4.04 12.12 0 8.28 0 4.81333C0 2.16 1.94667 0 4.33333 0C5.88 0 7.22667 0.893332 8 2.25333C8.77333 0.906666 10.12 0 11.6667 0C14.0533 0 16 2.16 16 4.81333C16 8.28 11.96 12.12 9.56 14.1067C9.10667 14.48 8.54667 14.6667 8 14.6667Z" fill="white" fill-opacity="0.2"/>
</svg>
