<svg width="20" height="16" viewBox="0 0 20 16" fill="none" xmlns="http://www.w3.org/2000/svg">
<mask id="path-1-outside-1_5756_5167" maskUnits="userSpaceOnUse" x="-0.5" y="0" width="20" height="16" fill="black">
<rect fill="white" x="-0.5" width="20" height="16"/>
<path d="M1.5206 8.125L2.81605 6.79545L7.31605 11.2273L16.6229 1.95454L17.9524 3.28409L7.31605 13.8864L1.5206 8.125Z"/>
</mask>
<path d="M1.5206 8.125L2.81605 6.79545L7.31605 11.2273L16.6229 1.95454L17.9524 3.28409L7.31605 13.8864L1.5206 8.125Z" fill="white"/>
<path d="M1.5206 8.125L0.804367 7.42714L0.113472 8.13621L0.815578 8.83419L1.5206 8.125ZM2.81605 6.79545L3.51774 6.08297L2.80143 5.37752L2.09982 6.09759L2.81605 6.79545ZM7.31605 11.2273L6.61436 11.9398L7.32013 12.6348L8.02186 11.9357L7.31605 11.2273ZM16.6229 1.95454L17.33 1.24744L16.6242 0.541627L15.9171 1.24614L16.6229 1.95454ZM17.9524 3.28409L18.6584 3.99233L19.3678 3.28523L18.6595 2.57698L17.9524 3.28409ZM7.31605 13.8864L6.61103 14.5956L7.317 15.2974L8.02202 14.5946L7.31605 13.8864ZM2.23683 8.82286L3.53228 7.49332L2.09982 6.09759L0.804367 7.42714L2.23683 8.82286ZM2.11436 7.50794L6.61436 11.9398L8.01774 10.5148L3.51774 6.08297L2.11436 7.50794ZM8.02186 11.9357L17.3287 2.66295L15.9171 1.24614L6.61024 10.5189L8.02186 11.9357ZM15.9158 2.66165L17.2453 3.9912L18.6595 2.57698L17.33 1.24744L15.9158 2.66165ZM17.2464 2.57585L6.61008 13.1781L8.02202 14.5946L18.6584 3.99233L17.2464 2.57585ZM8.02107 13.1772L2.22561 7.41581L0.815578 8.83419L6.61103 14.5956L8.02107 13.1772Z" fill="white" mask="url(#path-1-outside-1_5756_5167)"/>
</svg>
