<svg width="17" height="17" viewBox="0 0 17 17" fill="none" xmlns="http://www.w3.org/2000/svg">
<path d="M10.6123 11.8836L5.88768 9.73449M10.6891 4.78724L5.81086 7.44819M3.55905 11.2354C3.89511 11.2354 4.22788 11.1692 4.53836 11.0406C4.84884 10.912 5.13095 10.7235 5.36858 10.4859C5.60621 10.2483 5.79471 9.96617 5.92331 9.65569C6.05192 9.34521 6.11811 9.01244 6.11811 8.67638C6.11811 8.34032 6.05192 8.00755 5.92331 7.69707C5.79471 7.38659 5.60621 7.10448 5.36858 6.86685C5.13095 6.62922 4.84884 6.44073 4.53836 6.31212C4.22788 6.18352 3.89511 6.11732 3.55905 6.11732C2.88035 6.11732 2.22945 6.38694 1.74953 6.86685C1.26961 7.34677 1 7.99767 1 8.67638C1 9.35508 1.26961 10.006 1.74953 10.4859C2.22945 10.9658 2.88035 11.2354 3.55905 11.2354ZM12.9409 6.11811C13.277 6.11811 13.6098 6.05192 13.9203 5.92331C14.2307 5.79471 14.5128 5.60621 14.7505 5.36858C14.9881 5.13095 15.1766 4.84884 15.3052 4.53836C15.4338 4.22788 15.5 3.89511 15.5 3.55905C15.5 3.22299 15.4338 2.89023 15.3052 2.57975C15.1766 2.26927 14.9881 1.98716 14.7505 1.74953C14.5128 1.5119 14.2307 1.3234 13.9203 1.1948C13.6098 1.06619 13.277 1 12.9409 1C12.2622 1 11.6113 1.26961 11.1314 1.74953C10.6515 2.22945 10.3819 2.88035 10.3819 3.55905C10.3819 4.23776 10.6515 4.88866 11.1314 5.36858C11.6113 5.84849 12.2622 6.11811 12.9409 6.11811ZM12.9409 15.5C13.6196 15.5 14.2706 15.2304 14.7505 14.7505C15.2304 14.2706 15.5 13.6196 15.5 12.9409C15.5 12.2622 15.2304 11.6113 14.7505 11.1314C14.2706 10.6515 13.6196 10.3819 12.9409 10.3819C12.2622 10.3819 11.6113 10.6515 11.1314 11.1314C10.6515 11.6113 10.3819 12.2622 10.3819 12.9409C10.3819 13.6196 10.6515 14.2706 11.1314 14.7505C11.6113 15.2304 12.2622 15.5 12.9409 15.5Z" stroke="white" stroke-width="1.17568" stroke-linecap="round" stroke-linejoin="round"/>
</svg>
